<svg xmlns="http://www.w3.org/2000/svg" viewBox="0 0 97.000000 111.000000" fill="currentColor">
<g transform="translate(0.000000,111.000000) scale(0.100000,-0.100000)">
<path d="M420 920 c-12 -7 -16 -40 -18 -168 l-4 -159 -41 -13 c-88 -26 -177
-94 -177 -135 0 -39 28 -46 115 -30 121 23 112 30 120 -82 11 -150 16 -167 49
-171 38 -5 51 17 71 120 26 130 27 131 118 75 89 -56 137 -63 137 -21 0 32
-27 90 -49 107 -27 20 -81 87 -81 100 0 7 28 33 63 58 72 52 97 90 77 114 -19
22 -59 18 -148 -14 l-80 -30 -37 117 c-20 64 -42 123 -47 130 -12 14 -47 16
-68 2z m90 -316 c0 -8 11 -19 25 -24 15 -6 27 -21 33 -42 8 -29 6 -34 -12 -42
-12 -4 -28 -12 -38 -17 -11 -5 -18 -3 -22 6 -3 8 -16 15 -28 15 -13 0 -30 4
-37 9 -12 8 -9 11 12 16 25 7 27 11 27 54 0 26 3 51 7 54 9 9 33 -12 33 -29z"/>
</g>
</svg>