<svg xmlns="http://www.w3.org/2000/svg" viewBox="0 0 104.000000 219.000000" fill="currentColor">
<g transform="translate(0.000000,219.000000) scale(0.100000,-0.100000)">
<path d="M573 1998 c-6 -7 -22 -55 -37 -106 -14 -52 -56 -164 -92 -249 -42
-99 -68 -175 -71 -209 l-6 -54 36 0 c27 0 46 9 73 32 l37 32 -6 -29 c-4 -17
-16 -115 -27 -220 -41 -368 -90 -550 -222 -812 -78 -156 -81 -163 -68 -194
l13 -32 192 5 c176 4 194 6 232 27 22 13 46 33 52 45 15 29 57 322 72 499 11
143 7 528 -7 673 l-6 60 61 -10 c33 -5 64 -6 68 -2 4 4 7 25 7 47 -1 32 -14
58 -62 127 -56 82 -125 226 -152 318 -16 52 -64 81 -87 52z m90 -265 c48 -79
77 -139 77 -157 0 -10 -12 -16 -37 -18 l-38 -3 0 -60 c0 -33 7 -120 14 -194
26 -254 -8 -808 -59 -983 l-20 -66 -73 -6 c-39 -3 -102 -7 -139 -10 l-68 -4 0
32 c0 17 16 69 36 116 142 338 205 634 221 1034 l6 159 -36 -6 c-21 -3 -37 -2
-37 3 0 5 18 57 41 115 49 127 61 132 112 48z"/>
</g>
</svg>