<svg xmlns="http://www.w3.org/2000/svg" viewBox="0 0 150.000000 164.000000" fill="currentColor">
<g transform="translate(0.000000,164.000000) scale(0.100000,-0.100000)">
<path d="M751 1412 c-17 -28 -51 -97 -74 -154 -78 -188 -89 -205 -165 -241
-60 -28 -76 -31 -172 -32 -129 -2 -125 -2 -144 -21 -39 -38 -15 -69 121 -160
82 -54 103 -77 103 -109 0 -9 -20 -62 -45 -118 -24 -57 -48 -129 -53 -161 -9
-56 -9 -58 17 -68 41 -15 70 -4 226 83 l146 81 48 -12 c27 -6 105 -43 173 -81
134 -77 164 -87 198 -69 19 10 21 17 15 56 -3 25 -19 82 -35 129 -16 46 -32
101 -35 122 l-6 38 77 50 c106 68 180 137 187 175 17 80 -28 100 -224 100
l-134 0 -50 205 c-27 113 -52 210 -56 216 -3 6 -24 13 -46 16 -38 5 -40 4 -72
-45z m84 -109 c12 -82 53 -247 74 -295 21 -50 36 -58 116 -58 115 0 215 -13
215 -27 0 -7 -30 -34 -67 -61 -211 -150 -205 -141 -168 -284 14 -51 25 -96 25
-100 0 -19 -48 -3 -162 52 -91 45 -129 59 -148 55 -14 -3 -79 -33 -145 -65
-149 -72 -165 -77 -165 -53 0 10 18 54 40 98 47 93 58 142 40 185 -7 17 -48
60 -91 96 -44 36 -79 70 -79 75 0 5 16 9 36 9 49 0 174 19 205 31 45 17 73 58
155 219 43 85 82 161 87 167 15 20 24 7 32 -44z M325 1310 c-11 -17 -8 -75 5
-100 17 -35 71 -90 87 -90 33 0 1 140 -42 183 -18 19 -41 22 -50 7z M1150
1292 c-30 -14 -79 -80 -80 -104 0 -14 48 -20 69 -9 27 15 68 70 76 104 6 22 4
27 -11 27 -11 0 -35 -8 -54 -18z M702 418 c-18 -23 -44 -111 -49 -169 -5 -51
-3 -58 18 -73 34 -23 46 -20 59 17 18 50 25 203 10 222 -15 18 -24 19 -38 3z"/>
</g>
</svg>