<svg xmlns="http://www.w3.org/2000/svg" viewBox="0 0 180.000000 188.000000" fill="currentColor">
<g transform="translate(0.000000,188.000000) scale(0.100000,-0.100000)">
<path d="M625 1686 c-27 -20 -15 -104 38 -261 56 -165 69 -191 102 -198 33 -6
40 9 31 69 -7 56 -83 319 -102 356 -19 38 -46 51 -69 34z M1177 1528 c-46 -71
-88 -163 -94 -207 -5 -36 -3 -41 15 -41 57 0 209 255 168 282 -30 20 -62 8
-89 -34z M901 1491 c-10 -6 -12 -28 -9 -84 3 -79 9 -90 44 -101 27 -8 34 13
34 106 0 56 -3 69 -19 78 -24 12 -32 12 -50 1z M460 1307 c0 -29 52 -80 102
-101 37 -15 38 -15 44 10 10 38 -50 92 -118 108 -24 6 -28 3 -28 -17z M1318
1240 c-64 -64 -37 -116 39 -74 29 15 81 80 72 88 -11 9 -49 26 -60 26 -6 0
-29 -18 -51 -40z M205 1200 c-3 -5 -3 -20 1 -34 5 -20 18 -29 67 -45 63 -21
215 -44 229 -35 4 3 8 14 8 24 0 43 -282 127 -305 90z M1485 1090 c-59 -29
-94 -62 -95 -89 0 -11 12 -13 53 -8 95 10 197 69 197 114 0 24 -90 14 -155
-17z M258 983 c-11 -3 -18 -14 -18 -28 0 -41 26 -46 138 -29 26 4 32 10 32 28
0 13 -7 27 -16 30 -18 7 -109 6 -136 -1z M251 769 c-55 -11 -71 -24 -71 -60 0
-27 3 -29 39 -29 40 0 117 13 181 30 35 9 67 49 53 64 -9 9 -150 5 -202 -5z
M367 554 c-31 -19 -57 -39 -57 -44 0 -29 15 -40 51 -40 42 0 73 22 89 66 25
65 0 70 -83 18z M438 351 c-62 -61 -69 -73 -66 -102 3 -29 7 -34 31 -37 35 -4
89 49 123 123 51 109 12 116 -88 16z M696 263 c-6 -61 -4 -79 8 -91 13 -13 18
-13 40 2 24 15 26 22 26 85 0 63 -2 69 -22 75 -43 11 -45 7 -52 -71z"/>
</g>
</svg>