<svg xmlns="http://www.w3.org/2000/svg" viewBox="0 0 62.000000 135.000000" fill="currentColor">
<g transform="translate(0.000000,135.000000) scale(0.100000,-0.100000)">
<path d="M308 1122 c-51 -54 -115 -177 -124 -238 -6 -40 -5 -41 27 -48 22 -4
36 -2 41 6 54 86 121 212 134 251 16 48 16 51 -2 64 -25 19 -26 18 -76 -35z
M351 800 c-52 -66 -98 -160 -113 -233 -11 -50 -10 -59 4 -73 28 -28 54 -9 82
63 15 36 45 99 67 141 29 56 39 85 37 111 -5 54 -29 51 -77 -9z M392 427 c-41
-59 -80 -154 -82 -202 -3 -58 -1 -65 13 -65 36 0 92 102 124 223 16 60 16 69
3 77 -23 15 -27 13 -58 -33z"/>
</g>
</svg>