<svg xmlns="http://www.w3.org/2000/svg" viewBox="0 0 101.000000 73.000000" fill="currentColor">
<g transform="translate(0.000000,73.000000) scale(0.100000,-0.100000)">
<path d="M186 543 c-12 -12 -5 -128 12 -193 16 -62 18 -65 47 -65 l30 0 3 69
c3 66 -12 172 -26 179 -17 10 -60 16 -66 10z M532 538 c-25 -31 -112 -208
-126 -257 -21 -70 -20 -71 9 -71 31 0 101 90 151 195 41 83 44 130 12 139 -32
8 -34 8 -46 -6z M676 245 c-79 -28 -89 -35 -84 -61 3 -17 13 -19 77 -18 105 2
181 38 181 86 0 27 -88 24 -174 -7z"/>
</g>
</svg>