<svg xmlns="http://www.w3.org/2000/svg" viewBox="0 0 160.000000 113.000000" fill="currentColor">
<g transform="translate(0.000000,113.000000) scale(0.100000,-0.100000)">
<path d="M765 936 c-161 -72 -148 -351 20 -427 58 -27 167 -26 211 2 60 37 95
92 101 159 11 115 -38 204 -139 254 -59 29 -142 34 -193 12z m162 -100 c31
-28 38 -41 38 -73 0 -22 -8 -52 -18 -67 -16 -24 -23 -27 -65 -24 -43 3 -47 5
-53 36 l-6 32 53 0 c30 0 54 4 54 9 0 5 -12 23 -26 40 -29 35 -59 39 -103 17
-23 -12 -30 -26 -41 -75 -15 -71 -30 -79 -31 -18 -3 121 22 155 119 156 35 1
49 -5 79 -33z m107 -184 c3 -5 -13 -27 -34 -51 -38 -42 -39 -42 -101 -39 -77
4 -91 24 -22 33 82 10 108 20 118 43 10 22 29 29 39 14z M213 774 c-23 -5 -40
-44 -28 -63 7 -12 301 -16 329 -5 28 11 18 41 -16 54 -34 13 -244 22 -285 14z
M1179 464 c-12 -14 -6 -24 52 -78 68 -65 110 -89 172 -100 28 -5 37 -4 37 7 0
32 -50 83 -125 127 -99 59 -118 65 -136 44z M722 387 c-28 -33 -82 -161 -90
-212 -8 -49 -7 -57 9 -65 35 -19 48 -10 78 53 46 97 70 221 44 231 -22 9 -29
7 -41 -7z"/>
</g>
</svg>