<svg xmlns="http://www.w3.org/2000/svg" viewBox="0 0 104.000000 125.000000" fill="currentColor">
<g transform="translate(0.000000,125.000000) scale(0.100000,-0.100000)">
<path d="M486 1029 c-10 -25 -20 -97 -26 -186 -6 -81 -12 -148 -14 -151 -3 -2
-39 -8 -81 -13 -94 -12 -172 -48 -181 -84 -13 -53 -2 -58 170 -71 l89 -6 -7
-82 c-3 -44 -9 -112 -12 -151 -8 -90 5 -125 45 -125 34 0 53 29 116 178 22 50
45 92 52 92 7 0 44 -27 83 -61 49 -42 77 -59 93 -57 36 5 27 69 -27 176 l-46
91 45 38 c25 20 45 43 45 49 0 6 11 19 25 28 19 12 25 25 25 51 0 35 -1 35
-43 35 -24 0 -79 -11 -123 -24 -88 -26 -92 -24 -93 40 -1 45 -48 223 -66 250
-24 37 -50 30 -69 -17z m84 -307 l15 -47 72 -3 71 -3 -24 -42 c-13 -23 -24
-57 -24 -76 0 -35 -2 -36 -70 -16 -11 4 -24 -14 -44 -63 -43 -99 -48 -99 -44
3 l3 90 -35 12 c-19 6 -52 12 -73 12 -46 1 -41 16 11 32 58 17 71 32 89 103
18 75 28 75 53 -2z"/>
</g>
</svg>