<svg xmlns="http://www.w3.org/2000/svg" viewBox="0 0 96.000000 118.000000" fill="currentColor">
<g transform="translate(0.000000,118.000000) scale(0.100000,-0.100000)">
<path d="M472 968 c-6 -18 -16 -94 -23 -169 l-12 -136 -67 -12 c-92 -17 -167
-53 -180 -87 -6 -15 -9 -28 -8 -29 18 -14 54 -25 85 -25 21 0 55 -3 76 -6 43
-8 44 -15 22 -101 -17 -65 -20 -229 -5 -238 6 -4 23 -4 39 0 30 6 45 31 80
135 11 33 24 56 34 58 10 2 17 -3 17 -11 0 -20 79 -107 107 -118 41 -15 53 -2
53 60 0 31 -7 85 -16 121 -8 36 -13 75 -10 86 3 12 29 36 57 54 64 42 87 74
68 96 -10 13 -30 15 -103 12 l-90 -3 -12 65 c-6 36 -17 107 -24 158 -7 52 -19
100 -27 108 -25 24 -51 17 -61 -18z m56 -360 c7 -7 12 -20 12 -30 0 -11 7 -18
20 -18 17 0 20 -7 20 -45 0 -25 7 -56 15 -68 9 -14 11 -27 6 -36 -7 -11 -16
-4 -38 27 -33 49 -62 54 -92 15 -28 -34 -40 -21 -17 18 23 39 14 77 -19 85
-41 10 -31 34 15 34 27 0 43 5 46 15 7 18 16 19 32 3z"/>
</g>
</svg>