<svg xmlns="http://www.w3.org/2000/svg" viewBox="0 0 92.000000 108.000000" fill="currentColor">
<g transform="translate(0.000000,108.000000) scale(0.100000,-0.100000)">
<path d="M581 884 c-26 -19 -60 -87 -61 -121 0 -31 -12 -29 -78 14 -44 28 -70
38 -112 41 -50 4 -60 1 -89 -24 -91 -76 -74 -167 60 -310 38 -42 97 -112 130
-157 34 -45 80 -101 102 -124 39 -41 42 -42 60 -25 30 27 41 54 103 252 51
165 57 195 58 275 1 81 -2 95 -26 136 -35 60 -97 78 -147 43z m78 -73 c11 -7
15 -31 15 -88 0 -66 -8 -104 -49 -240 -33 -108 -55 -163 -64 -163 -17 0 -67
51 -193 198 -96 111 -120 157 -104 197 10 27 54 37 88 19 50 -26 118 -95 144
-146 37 -74 47 -65 60 52 8 77 17 104 50 147 27 35 31 37 53 24z"/>
</g>
</svg>