<svg xmlns="http://www.w3.org/2000/svg" viewBox="0 0 53.000000 150.000000" fill="currentColor">
<g transform="translate(0.000000,150.000000) scale(0.100000,-0.100000)">
<path d="M248 1303 c-9 -10 -26 -38 -39 -63 -24 -44 -24 -50 -23 -300 1 -185
6 -280 18 -344 8 -49 17 -90 18 -92 2 -1 16 -4 32 -6 27 -3 31 1 43 42 7 25
27 149 43 277 42 322 39 467 -10 493 -29 15 -65 12 -82 -7z M206 326 c-22 -21
-26 -35 -26 -79 0 -58 8 -71 53 -82 40 -11 70 1 90 34 25 43 22 83 -10 113
-43 41 -77 45 -107 14z"/>
</g>
</svg>