<svg xmlns="http://www.w3.org/2000/svg" viewBox="0 0 130.000000 232.000000" fill="currentColor">
<g transform="translate(0.000000,232.000000) scale(0.100000,-0.100000)">
<path d="M262 2123 c-5 -10 -24 -63 -43 -118 -28 -82 -34 -115 -34 -185 0 -70
4 -91 22 -120 39 -62 120 -96 323 -133 l125 -22 -1 -51 c-1 -30 -18 -98 -43
-170 -44 -129 -48 -155 -30 -215 19 -60 44 -77 155 -100 54 -11 123 -31 152
-45 l54 -24 -7 -52 c-4 -29 -19 -89 -32 -133 -14 -44 -27 -116 -30 -160 -5
-77 3 -119 42 -208 7 -17 6 -18 -30 -3 -69 29 -123 17 -111 -25 9 -35 14 -41
96 -100 114 -83 143 -99 186 -99 87 0 84 -5 84 151 0 188 -19 235 -78 193 -19
-13 -22 -24 -22 -75 0 -78 -18 -75 -43 7 -29 90 -26 170 12 318 61 234 27 292
-202 345 -150 36 -149 34 -90 200 52 144 59 212 29 278 -22 50 -57 66 -212 93
-106 19 -158 33 -216 60 -27 13 -28 16 -28 94 0 45 4 97 10 116 5 19 10 71 12
115 3 76 2 80 -19 83 -13 2 -25 -4 -31 -15z"/>
</g>
</svg>