<svg xmlns="http://www.w3.org/2000/svg" viewBox="0 0 83.000000 101.000000" fill="currentColor">
<g transform="translate(0.000000,101.000000) scale(0.100000,-0.100000)">
<path d="M415 820 c-4 -6 -15 -42 -26 -81 -36 -130 -70 -176 -155 -209 -44
-17 -49 -21 -46 -47 2 -15 5 -29 7 -31 1 -2 40 -13 86 -25 l84 -22 23 -114
c22 -116 31 -133 67 -129 15 2 26 23 50 98 38 119 54 143 116 170 47 20 50 23
47 53 -3 29 -8 34 -56 51 -30 10 -60 29 -68 41 -8 12 -26 69 -41 126 -14 57
-30 110 -35 117 -12 15 -44 16 -53 2z m71 -266 l48 -56 -29 -54 c-18 -33 -36
-54 -46 -54 -23 0 -76 45 -94 81 -19 35 -19 39 0 39 9 0 18 8 22 18 19 55 33
82 42 82 5 0 31 -25 57 -56z"/>
</g>
</svg>