<svg xmlns="http://www.w3.org/2000/svg" viewBox="0 0 140.000000 139.000000" fill="currentColor">
<g transform="translate(0.000000,139.000000) scale(0.100000,-0.100000)">
<path d="M628 1200 c-101 -31 -138 -93 -138 -227 l0 -90 -55 -6 c-66 -7 -155
-46 -195 -85 -41 -42 -65 -128 -50 -184 21 -76 69 -108 164 -108 l55 0 -25
-67 c-33 -88 -31 -169 7 -209 59 -64 127 -71 209 -21 30 17 61 44 68 60 16 33
38 35 46 3 7 -29 77 -93 111 -102 45 -11 95 6 139 46 l41 39 0 88 c0 48 -3
104 -8 123 -7 34 -6 36 45 67 121 72 198 171 198 253 0 42 -30 92 -73 124 -23
17 -43 21 -100 21 -66 0 -78 -3 -135 -37 -35 -21 -64 -38 -65 -38 -1 0 -1 48
1 108 l4 107 -42 53 c-23 29 -55 59 -70 67 -37 19 -98 26 -132 15z m86 -76 c9
-3 16 -12 16 -19 0 -7 9 -15 20 -18 39 -10 50 -62 43 -211 l-6 -136 35 0 c25
0 49 11 89 41 63 48 124 78 158 79 34 0 90 -38 97 -66 10 -37 -2 -67 -47 -117
-47 -55 -105 -91 -177 -112 -28 -9 -54 -20 -57 -25 -3 -5 3 -27 15 -49 55
-108 57 -213 5 -247 -59 -39 -118 14 -156 138 -20 66 -39 88 -57 65 -5 -7 -24
-40 -41 -74 -39 -73 -66 -100 -117 -118 -61 -21 -94 3 -94 66 0 49 22 108 64
172 18 29 37 63 41 75 7 24 7 24 -52 15 -32 -4 -89 -8 -126 -8 -61 0 -71 3
-89 25 -30 37 -21 115 18 148 68 56 146 66 236 32 95 -36 109 -21 61 65 -38
69 -45 179 -13 229 12 20 29 40 38 46 19 11 72 13 96 4z M702 664 c-18 -12
-22 -24 -20 -52 3 -32 7 -38 33 -43 83 -16 130 73 53 100 -39 14 -39 14 -66
-5z"/>
</g>
</svg>