<svg xmlns="http://www.w3.org/2000/svg" viewBox="0 0 112.000000 133.000000" fill="currentColor">
<g transform="translate(0.000000,133.000000) scale(0.100000,-0.100000)">
<path d="M571 1136 c-6 -7 -14 -82 -20 -169 -14 -220 -39 -272 -151 -303 -63
-18 -77 -29 -82 -63 -3 -21 3 -25 50 -37 118 -31 133 -52 162 -224 22 -125 35
-160 64 -160 12 0 26 4 32 8 6 4 21 63 33 132 19 107 50 240 55 240 1 0 29 5
61 11 78 14 135 44 135 69 0 25 -14 32 -131 65 l-97 27 -17 87 c-9 47 -19 137
-23 200 -7 114 -7 115 -34 122 -17 4 -31 3 -37 -5z m71 -465 c47 -43 47 -46
-7 -130 -33 -53 -55 -52 -85 2 -12 23 -30 50 -38 59 -13 15 -10 22 23 62 21
26 44 46 52 46 7 0 33 -18 55 -39z M877 1117 c-34 -32 -97 -143 -97 -172 0
-10 10 -15 29 -15 44 0 115 90 135 172 5 21 2 30 -13 38 -16 8 -26 4 -54 -23z
M180 1000 c0 -30 73 -104 135 -136 29 -16 57 -25 61 -22 11 12 -14 68 -47 106
-44 51 -78 72 -116 72 -26 0 -33 -4 -33 -20z M820 348 c0 -47 51 -106 106
-122 17 -5 23 -1 28 19 8 32 -20 75 -68 104 -44 28 -66 27 -66 -1z M266 299
c-67 -59 -84 -144 -27 -137 20 2 39 22 79 80 29 43 50 82 47 88 -13 21 -54 8
-99 -31z"/>
</g>
</svg>