<svg xmlns="http://www.w3.org/2000/svg" viewBox="0 0 76.000000 91.000000" fill="currentColor">
<g transform="translate(0.000000,91.000000) scale(0.100000,-0.100000)">
<path d="M367 723 c-3 -4 -10 -56 -17 -114 l-13 -107 -76 -30 c-68 -26 -76
-32 -73 -53 5 -35 15 -41 85 -59 l62 -15 10 -84 c8 -71 13 -85 31 -92 18 -6
24 -1 37 27 9 19 20 52 23 74 4 22 8 40 11 40 2 0 31 -9 65 -21 33 -11 64 -17
69 -12 18 18 12 61 -16 116 l-29 57 27 26 c15 13 27 29 27 34 0 4 3 15 6 24 5
13 -2 16 -43 16 -67 0 -81 13 -95 90 -6 36 -14 68 -17 71 -10 11 -69 21 -74
12z"/>
</g>
</svg>