<svg xmlns="http://www.w3.org/2000/svg" viewBox="0 0 83.000000 91.000000" fill="currentColor">
<g transform="translate(0.000000,91.000000) scale(0.100000,-0.100000)">
<path d="M396 683 c-4 -26 -14 -71 -21 -99 l-15 -52 -77 -27 c-43 -15 -84 -29
-90 -31 -15 -4 -17 -42 -4 -62 4 -8 39 -21 77 -31 l69 -17 3 -82 c3 -74 5 -83
29 -102 15 -11 30 -19 34 -18 4 2 27 32 51 68 48 72 71 83 115 52 15 -11 40
-23 56 -26 23 -6 29 -2 38 21 10 24 7 36 -20 85 -39 70 -39 92 -1 134 23 27
28 39 21 56 -7 21 -16 23 -79 26 l-71 3 -18 49 c-21 59 -41 86 -69 94 -19 6
-22 2 -28 -41z"/>
</g>
</svg>