<svg xmlns="http://www.w3.org/2000/svg" viewBox="0 0 142.000000 118.000000" fill="currentColor">
<g transform="translate(0.000000,118.000000) scale(0.100000,-0.100000)">
<path d="M670 989 c-195 -25 -372 -197 -456 -444 -23 -67 -28 -101 -32 -216
-4 -117 -2 -138 13 -152 21 -22 42 -22 54 0 5 10 12 70 16 133 8 138 24 212
69 305 90 190 253 297 431 283 74 -6 99 -22 200 -123 52 -52 69 -80 129 -210
77 -168 98 -197 136 -193 23 3 25 7 24 48 -1 99 -167 397 -275 494 -70 63
-184 91 -309 75z M618 738 c-41 -11 -123 -78 -133 -108 -4 -11 -12 -20 -19
-20 -22 0 -65 -111 -82 -213 -18 -104 -13 -184 12 -194 21 -8 44 16 44 47 0
57 32 207 54 255 55 118 152 168 265 135 56 -16 90 -58 152 -188 56 -117 60
-123 86 -120 26 3 28 6 26 49 -2 87 -108 278 -176 319 -59 37 -168 55 -229 38z
M663 480 c-43 -17 -69 -100 -58 -186 6 -48 9 -54 30 -54 20 0 25 8 40 70 11
47 24 74 36 81 14 7 19 6 19 -3 0 -7 14 -34 30 -60 23 -37 36 -48 55 -48 23 0
25 4 25 43 -1 115 -88 193 -177 157z"/>
</g>
</svg>