<svg xmlns="http://www.w3.org/2000/svg" viewBox="0 0 87.000000 106.000000" fill="currentColor">
<g transform="translate(0.000000,106.000000) scale(0.100000,-0.100000)">
<path d="M271 867 c-66 -23 -96 -93 -74 -169 10 -36 36 -73 111 -155 54 -59
144 -165 200 -235 106 -132 124 -148 165 -148 54 0 50 67 -17 254 -106 297
-169 406 -260 447 -47 21 -77 23 -125 6z m113 -92 c47 -22 95 -102 162 -269
24 -61 31 -111 16 -120 -5 -3 -26 18 -48 46 -21 29 -85 100 -141 160 -103 108
-111 123 -97 176 5 17 13 22 41 22 19 0 49 -7 67 -15z"/>
</g>
</svg>