<svg xmlns="http://www.w3.org/2000/svg" viewBox="0 0 193.000000 72.000000" fill="currentColor">
<g transform="translate(0.000000,72.000000) scale(0.100000,-0.100000)">
<path d="M196 525 c-27 -27 -20 -60 18 -80 31 -17 54 -18 307 -11 151 3 301 9
334 13 54 5 59 4 46 -10 -7 -9 -58 -48 -112 -87 -105 -75 -122 -95 -117 -138
2 -22 11 -30 45 -41 37 -13 68 -12 295 8 139 12 363 31 497 42 238 19 267 25
258 53 -10 32 -201 31 -672 -4 -148 -10 -271 -18 -273 -16 -3 4 103 75 240
161 47 30 64 46 66 66 6 52 -11 54 -484 57 -386 2 -433 1 -448 -13z"/>
</g>
</svg>