<svg xmlns="http://www.w3.org/2000/svg" viewBox="0 0 169.000000 137.000000" fill="currentColor">
<g transform="translate(0.000000,137.000000) scale(0.100000,-0.100000)">
<path d="M468 1157 c-95 -72 -213 -267 -258 -427 -26 -93 -37 -262 -21 -312 6
-19 22 -45 35 -57 19 -18 28 -20 49 -12 31 12 35 32 11 52 -14 12 -16 30 -12
124 8 163 53 283 183 484 37 57 50 69 85 80 23 7 43 11 45 9 9 -8 44 -169 50
-225 12 -107 0 -153 -62 -246 -89 -132 -122 -221 -108 -286 6 -29 10 -31 50
-31 81 0 136 84 172 263 21 104 36 121 104 122 49 0 54 -2 76 -34 13 -19 30
-58 39 -86 19 -67 9 -93 -61 -165 -59 -60 -81 -115 -69 -174 10 -55 39 -79 86
-73 71 10 98 49 122 178 18 95 30 109 92 109 46 0 104 -38 104 -67 0 -9 -14
-40 -31 -70 -34 -59 -42 -119 -19 -134 46 -28 110 17 130 91 l12 43 129 -7
c114 -6 129 -5 129 9 0 27 -98 65 -188 72 -77 6 -81 7 -87 32 -8 35 -50 80
-91 97 -18 8 -62 14 -97 14 l-64 0 -17 63 c-9 34 -32 85 -51 114 -41 62 -80
78 -164 69 l-56 -6 -1 117 c-1 143 -19 216 -68 267 -30 32 -39 36 -84 36 -42
0 -58 -6 -94 -33z m120 -669 c-11 -53 -47 -118 -65 -118 -12 0 -2 34 42 143 4
9 13 17 20 17 10 0 11 -10 3 -42z m303 -211 c-7 -17 -18 -27 -30 -27 -19 0
-19 2 -6 45 7 25 19 53 27 62 11 14 13 12 16 -18 2 -19 -2 -47 -7 -62z"/>
</g>
</svg>