<svg xmlns="http://www.w3.org/2000/svg" viewBox="0 0 78.000000 133.000000" fill="currentColor">
<g transform="translate(0.000000,133.000000) scale(0.100000,-0.100000)">
<path d="M335 1141 c-48 -12 -82 -39 -104 -84 -39 -80 -46 -142 -46 -387 0
-270 13 -355 68 -437 27 -41 39 -50 84 -62 68 -18 93 -10 150 48 80 82 133
257 133 443 l0 89 -32 -3 -32 -3 -18 -103 c-19 -119 -30 -152 -23 -72 2 30 8
147 11 260 6 179 5 209 -9 237 -31 59 -109 91 -182 74z m101 -102 c11 -9 14
-40 13 -133 -1 -230 -34 -446 -68 -446 -14 0 -14 130 -1 335 5 82 8 151 7 152
-2 1 -12 0 -24 -3 -18 -5 -24 -20 -38 -94 -8 -49 -19 -156 -22 -239 -3 -83 -9
-151 -13 -151 -27 0 -31 36 -28 257 3 214 4 231 25 270 30 56 59 76 101 69 19
-3 40 -10 48 -17z m60 -608 c-3 -21 -15 -68 -26 -105 l-21 -66 -60 0 c-66 0
-65 -2 -73 77 l-5 53 24 -16 c38 -25 88 -11 125 34 16 20 30 42 30 49 0 7 3
13 6 13 4 0 4 -17 0 -39z"/>
</g>
</svg>