<svg xmlns="http://www.w3.org/2000/svg" viewBox="0 0 284.000000 153.000000" fill="currentColor">
<g transform="translate(0.000000,153.000000) scale(0.100000,-0.100000)">
<path d="M361 1312 c-53 -55 -109 -169 -136 -275 -35 -141 -47 -274 -43 -474
4 -151 8 -187 27 -238 63 -172 207 -192 390 -55 43 33 81 60 84 60 2 0 7 -14
11 -31 17 -86 97 -145 184 -137 74 7 121 35 215 130 48 48 93 88 98 88 6 0 27
-11 47 -25 28 -19 49 -25 93 -25 61 0 98 16 220 95 38 24 70 41 72 37 3 -4 7
-24 11 -45 9 -51 37 -77 82 -77 45 0 65 11 136 72 l58 49 0 -61 c0 -52 4 -65
26 -87 22 -22 31 -24 67 -19 48 8 105 39 167 91 69 58 77 60 86 23 12 -57 32
-78 74 -78 20 0 51 5 69 11 26 9 40 8 82 -10 57 -25 161 -30 185 -10 8 7 14
24 12 38 -3 24 -6 25 -53 22 -37 -2 -65 5 -109 25 -51 23 -67 26 -122 21 l-64
-6 0 37 c0 57 -11 83 -38 93 -29 11 -40 5 -127 -69 -69 -59 -150 -106 -169
-99 -9 4 -15 30 -18 81 -6 126 -45 137 -147 43 -31 -29 -66 -61 -78 -71 l-23
-19 -15 38 c-13 30 -14 47 -6 87 6 27 11 69 11 94 0 43 -1 45 -27 42 -21 -2
-34 -16 -60 -60 -54 -92 -182 -181 -284 -197 -98 -16 -116 30 -69 176 41 125
55 210 39 229 -21 25 -56 16 -89 -23 -40 -49 -68 -141 -76 -254 -8 -101 -8
-102 -111 -207 -88 -88 -169 -121 -225 -91 -27 14 -58 85 -58 134 0 31 14 65
60 145 122 214 186 447 151 553 -12 36 -14 37 -62 37 -47 0 -54 -4 -106 -52
-116 -110 -132 -162 -140 -451 -4 -122 -10 -207 -16 -207 -5 0 -33 -22 -63
-49 -133 -122 -240 -124 -289 -5 -18 44 -20 71 -19 274 1 313 31 463 119 598
37 55 59 65 68 32 3 -12 14 -20 26 -20 18 0 21 6 21 38 0 49 -24 72 -75 72
-31 0 -45 -7 -74 -38z m559 -302 c0 -150 -124 -459 -184 -460 -11 0 1 144 20
240 27 128 100 260 145 260 16 0 19 -7 19 -40z"/>
</g>
</svg>