<svg xmlns="http://www.w3.org/2000/svg" viewBox="0 0 81.000000 102.000000" fill="currentColor">
<g transform="translate(0.000000,102.000000) scale(0.100000,-0.100000)">
<path d="M211 821 c-45 -45 -40 -135 13 -259 43 -100 52 -134 76 -275 10 -60
23 -114 29 -120 17 -17 54 16 93 80 19 32 62 101 95 153 99 156 127 217 131
285 5 71 -12 93 -76 102 -33 4 -44 1 -75 -27 -20 -17 -39 -40 -42 -51 -11 -32
-29 -21 -56 33 -14 31 -39 62 -58 75 -43 29 -103 31 -130 4z m83 -72 c31 -14
42 -42 61 -148 8 -46 17 -86 20 -89 8 -8 33 17 56 57 32 53 110 131 132 131
16 0 18 -5 12 -32 -14 -66 -114 -235 -169 -287 l-25 -24 -10 25 c-5 14 -14 44
-20 66 -6 22 -29 84 -51 136 -24 58 -40 112 -40 136 0 45 0 44 34 29z"/>
</g>
</svg>