<svg xmlns="http://www.w3.org/2000/svg" viewBox="0 0 98.000000 105.000000" fill="currentColor">
<g transform="translate(0.000000,105.000000) scale(0.100000,-0.100000)">
<path d="M483 858 c-5 -7 -16 -33 -23 -57 -29 -91 -81 -140 -179 -167 -89 -24
-101 -31 -101 -58 0 -47 71 -60 170 -30 42 12 67 29 111 74 78 80 123 202 87
238 -16 16 -53 15 -65 0z M646 759 c-33 -81 -10 -191 49 -237 19 -15 42 -22
71 -22 55 0 57 16 11 71 -38 44 -57 97 -57 156 0 40 -9 54 -42 66 -12 4 -20
-4 -32 -34z M233 444 c-7 -3 -13 -14 -13 -24 0 -24 14 -34 94 -62 l69 -25 23
-64 c24 -65 47 -92 74 -87 12 3 15 18 15 70 0 58 -4 72 -30 109 -41 58 -83 81
-158 85 -34 2 -68 1 -74 -2z M689 357 c-54 -36 -96 -136 -71 -173 4 -6 17 -14
29 -18 19 -6 26 0 47 42 14 27 48 70 77 94 37 32 50 50 46 62 -10 25 -86 21
-128 -7z"/>
</g>
</svg>