<svg xmlns="http://www.w3.org/2000/svg" viewBox="0 0 99.000000 94.000000" fill="currentColor">
<g transform="translate(0.000000,94.000000) scale(0.100000,-0.100000)">
<path d="M717 720 c-31 -22 -59 -49 -62 -60 -4 -11 -12 -20 -20 -20 -16 0
-163 -193 -184 -242 -9 -21 -20 -36 -25 -35 -5 2 -18 32 -28 68 -21 75 -89
218 -115 241 -10 9 -33 19 -50 23 -28 6 -34 3 -44 -18 -9 -20 -7 -33 14 -73
39 -78 73 -166 102 -266 41 -143 85 -196 133 -162 11 7 43 55 72 106 75 132
142 228 208 300 91 99 112 128 112 154 0 38 -46 32 -113 -16z"/>
</g>
</svg>