<svg xmlns="http://www.w3.org/2000/svg" viewBox="0 0 112.000000 146.000000" fill="currentColor">
<g transform="translate(0.000000,146.000000) scale(0.100000,-0.100000)">
<path d="M562 1244 c-5 -22 -17 -70 -26 -109 -38 -167 -157 -325 -293 -390
-53 -25 -63 -34 -63 -56 0 -23 6 -27 73 -44 39 -10 95 -27 122 -37 49 -19 51
-21 88 -109 20 -49 51 -144 69 -212 17 -67 33 -124 34 -125 1 -2 15 -1 31 2
27 6 29 12 60 140 56 228 83 271 219 335 79 38 85 43 82 69 -3 23 -15 33 -78
64 -126 63 -165 129 -210 351 -15 76 -29 140 -32 142 -2 3 -18 8 -36 11 -29 6
-31 4 -40 -32z m68 -285 c24 -92 67 -167 118 -203 23 -16 42 -36 42 -44 0 -16
-123 -142 -139 -142 -5 0 -12 -15 -16 -32 -16 -77 -27 -108 -38 -108 -7 0 -29
33 -49 74 -44 88 -85 138 -144 172 -24 14 -44 29 -44 34 0 4 33 41 73 81 68
68 102 121 137 214 18 46 42 27 60 -46z"/>
</g>
</svg>