<svg xmlns="http://www.w3.org/2000/svg" viewBox="0 0 78.000000 106.000000" fill="currentColor">
<g transform="translate(0.000000,106.000000) scale(0.100000,-0.100000)">
<path d="M363 868 c-6 -7 -18 -47 -28 -88 -28 -117 -52 -173 -105 -246 -28
-37 -50 -78 -50 -91 0 -16 14 -37 41 -61 23 -20 66 -72 96 -115 53 -75 92
-107 130 -107 13 0 40 42 98 154 90 173 91 183 17 230 -44 27 -56 54 -98 216
-15 58 -28 106 -29 107 -7 12 -63 12 -72 1z m77 -292 c23 -36 48 -70 56 -77 8
-6 14 -19 14 -28 0 -14 -64 -158 -75 -170 -9 -8 -75 42 -113 88 l-41 49 50
101 c28 55 54 101 59 101 4 0 27 -29 50 -64z"/>
</g>
</svg>