<svg xmlns="http://www.w3.org/2000/svg" viewBox="0 0 102.000000 170.000000" fill="currentColor">
<g transform="translate(0.000000,170.000000) scale(0.100000,-0.100000)">
<path d="M180 1490 c0 -16 30 -90 69 -167 104 -209 127 -287 176 -591 l7 -42
-51 20 c-133 52 -150 -4 -53 -173 26 -45 78 -149 116 -230 68 -144 71 -148 99
-145 26 3 37 18 106 138 43 74 108 182 144 238 52 82 64 108 58 125 -11 30
-52 32 -130 8 l-64 -20 7 202 c4 111 11 252 16 312 15 172 13 322 -4 328 -35
14 -49 -42 -75 -294 -12 -108 -24 -279 -27 -380 -9 -248 3 -283 86 -259 19 6
36 10 37 10 10 0 -2 -25 -39 -81 -23 -35 -56 -90 -73 -122 -38 -69 -36 -70
-101 64 -25 52 -57 109 -71 127 -14 18 -23 35 -22 37 2 1 28 -2 57 -8 44 -9
55 -9 63 3 14 21 2 210 -22 360 -41 245 -115 418 -225 528 -52 51 -84 56 -84
12z"/>
</g>
</svg>