<svg xmlns="http://www.w3.org/2000/svg" viewBox="0 0 306.000000 254.000000" fill="currentColor">
<g transform="translate(0.000000,254.000000) scale(0.100000,-0.100000)">
<path d="M1155 2346 c-152 -23 -304 -66 -440 -127 -81 -35 -176 -101 -252
-173 -76 -71 -90 -91 -138 -190 -68 -139 -95 -247 -95 -381 0 -108 12 -168 59
-312 41 -126 77 -198 118 -239 58 -59 463 -248 637 -298 153 -44 354 -72 715
-100 l144 -11 18 -45 c27 -66 24 -141 -7 -210 -14 -32 -24 -66 -22 -77 14 -72
210 52 299 190 21 32 45 82 55 110 25 80 38 93 126 135 160 76 349 228 417
337 86 137 117 264 108 445 -12 244 -90 423 -261 596 -85 85 -149 128 -287
189 -210 94 -310 124 -509 151 -151 21 -571 27 -685 10z m551 -66 c250 -20
400 -63 669 -191 99 -47 119 -61 202 -144 186 -188 263 -360 263 -588 -1 -303
-191 -555 -510 -677 -103 -39 -109 -45 -126 -130 -9 -49 -38 -104 -96 -183
-68 -92 -84 -90 -90 11 -5 95 -34 162 -82 192 -29 17 -50 20 -149 20 -63 0
-150 6 -193 14 -44 8 -126 20 -184 26 -174 20 -336 58 -445 105 -55 24 -149
62 -208 86 -138 54 -288 154 -334 223 -36 53 -86 197 -104 300 -17 100 -7 285
21 366 76 226 191 353 412 454 123 57 320 108 458 119 103 8 376 6 496 -3z
M515 2295 c-101 -51 -245 -195 -245 -245 0 -30 38 -35 64 -8 12 12 75 70 139
127 116 103 136 133 92 138 -11 2 -33 -4 -50 -12z M243 2238 c-61 -67 -83
-150 -43 -161 23 -6 38 12 68 83 32 74 36 100 14 100 -10 0 -28 -10 -39 -22z"/>
</g>
</svg>