<svg xmlns="http://www.w3.org/2000/svg" viewBox="0 0 61.000000 94.000000" fill="currentColor">
<g transform="translate(0.000000,94.000000) scale(0.100000,-0.100000)">
<path d="M340 743 c-38 -26 -49 -45 -50 -83 0 -39 7 -52 34 -67 21 -12 14 -20
-41 -53 -41 -24 -43 -56 -8 -98 36 -43 32 -71 -22 -136 -25 -30 -56 -86 -67
-123 -6 -19 -4 -23 16 -23 18 0 38 19 84 80 88 119 99 143 85 188 -7 20 -14
42 -17 49 -3 6 7 14 24 18 29 6 72 38 72 54 0 4 -11 23 -25 42 -40 56 -52 82
-38 86 61 21 68 83 10 83 -18 0 -44 -8 -57 -17z"/>
</g>
</svg>