<svg xmlns="http://www.w3.org/2000/svg" viewBox="0 0 230.000000 146.000000" fill="currentColor">
<g transform="translate(0.000000,146.000000) scale(0.100000,-0.100000)">
<path d="M417 1274 c-14 -15 -6 -136 18 -264 32 -170 32 -203 2 -219 -13 -7
-52 -46 -88 -88 -35 -41 -85 -96 -110 -122 -49 -51 -68 -103 -47 -128 10 -13
44 -14 194 -12 l182 4 26 -99 c39 -147 79 -207 122 -178 17 11 57 95 104 222
24 63 47 118 52 121 5 3 61 11 126 18 64 6 142 17 172 24 51 12 55 14 58 44 3
26 -4 38 -40 73 -24 22 -71 60 -105 83 -34 23 -63 49 -63 58 0 9 20 74 45 143
85 241 58 263 -167 136 l-107 -61 -33 16 c-18 8 -78 56 -133 106 -55 50 -109
96 -120 104 -25 16 -79 28 -88 19z m183 -212 c147 -119 237 -132 336 -49 32
27 64 36 64 17 0 -5 -16 -53 -35 -107 -19 -54 -35 -114 -35 -133 0 -33 5 -38
70 -79 60 -36 106 -78 97 -87 -1 -2 -58 -10 -126 -19 -69 -9 -132 -20 -142
-26 -10 -5 -40 -66 -70 -144 -29 -74 -56 -135 -61 -135 -12 0 -22 30 -44 133
l-19 87 -60 -1 c-33 0 -100 -4 -150 -8 -49 -4 -94 -4 -98 0 -18 15 29 83 114
168 50 50 91 99 95 115 10 40 0 137 -25 239 -12 48 -19 92 -15 98 7 11 3 14
104 -69z M1310 861 c0 -5 -2 -16 -5 -23 -6 -16 32 -36 138 -75 124 -45 231
-99 407 -208 256 -158 290 -171 290 -110 0 31 -45 66 -240 187 -181 112 -319
180 -434 213 -90 26 -156 32 -156 16z M1370 546 c0 -29 -3 -28 365 -131 240
-67 275 -73 275 -53 0 47 -143 106 -400 167 -69 16 -151 32 -182 36 -57 6 -58
6 -58 -19z M1132 317 c-11 -13 -10 -19 5 -34 17 -17 50 -20 308 -32 160 -7
324 -16 365 -21 41 -5 114 -9 163 -10 79 0 87 2 87 19 0 27 -92 60 -200 72
-47 5 -227 12 -400 16 -281 5 -316 4 -328 -10z"/>
</g>
</svg>