<svg xmlns="http://www.w3.org/2000/svg" viewBox="0 0 199.000000 129.000000" fill="currentColor">
<g transform="translate(0.000000,129.000000) scale(0.100000,-0.100000)">
<path d="M257 1103 c-6 -11 -15 -123 -32 -428 -9 -143 -22 -304 -30 -358 -16
-111 -12 -157 16 -157 21 0 62 66 78 125 6 22 15 118 20 214 6 95 12 176 15
178 3 3 7 -5 10 -18 3 -13 17 -78 32 -144 37 -171 54 -217 86 -234 15 -9 30
-13 33 -9 18 18 36 133 45 292 6 99 20 258 31 354 16 142 17 177 7 183 -25 16
-35 9 -51 -33 -28 -75 -36 -117 -54 -279 -9 -88 -20 -159 -23 -159 -3 0 -31
104 -63 232 -32 128 -59 233 -60 234 -8 8 -56 14 -60 7z M1741 1035 c-23 -31
-35 -83 -62 -270 -23 -162 -19 -255 11 -255 23 0 22 -3 75 223 56 241 67 310
51 319 -23 15 -55 7 -75 -17z M1302 750 c-27 -11 -79 -91 -93 -145 -28 -103
24 -261 101 -304 21 -11 49 -21 63 -21 31 0 82 41 103 82 18 35 11 98 -10 98
-20 0 -64 -38 -71 -60 -8 -26 -39 -26 -65 0 -25 25 -28 90 -5 90 9 0 40 24 70
53 51 49 55 57 55 99 0 56 -27 93 -78 108 -43 11 -40 11 -70 0z m77 -86 c2 -2
0 -19 -3 -39 -6 -29 -14 -39 -42 -51 -60 -25 -70 -1 -27 65 21 33 31 40 47 35
12 -4 23 -8 25 -10z M927 722 c-9 -10 -28 -44 -43 -77 -52 -114 -32 -278 43
-358 23 -23 35 -27 80 -27 48 0 54 2 68 31 9 16 19 52 22 80 5 45 4 49 -15 49
-19 0 -55 -35 -64 -62 -3 -9 -13 -8 -37 2 l-33 13 4 124 c3 110 5 126 23 139
18 13 20 11 35 -28 8 -23 20 -43 25 -45 24 -7 38 17 38 63 0 41 -4 51 -36 81
-41 37 -84 43 -110 15z M691 667 c-19 -39 -21 -61 -21 -214 0 -165 1 -172 21
-178 11 -4 23 -4 27 0 18 18 33 105 43 244 11 154 11 155 -11 173 -31 25 -36
23 -59 -25z M1622 392 c-9 -6 -12 -25 -10 -53 3 -43 3 -44 48 -51 50 -9 70 5
70 47 0 40 -74 79 -108 57z"/>
</g>
</svg>