<svg xmlns="http://www.w3.org/2000/svg" viewBox="0 0 165.000000 135.000000" fill="currentColor">
<g transform="translate(0.000000,135.000000) scale(0.100000,-0.100000)">
<path d="M536 1093 c-53 -109 -171 -284 -253 -375 -38 -42 -78 -95 -88 -117
-23 -51 -21 -53 114 -145 53 -37 135 -100 182 -141 151 -134 186 -158 215
-151 l27 7 -5 123 -5 123 346 6 c191 4 363 12 384 18 l39 10 -4 232 c-2 128
-8 240 -12 249 -4 10 -27 23 -49 29 -46 12 -111 9 -437 -21 -113 -11 -227 -20
-255 -22 l-50 -2 -7 60 c-9 82 -34 175 -50 185 -36 23 -53 10 -92 -68z m80
-178 l21 -70 114 2 c63 2 231 10 373 18 143 8 262 13 265 10 6 -7 24 -355 18
-361 -2 -2 -145 -8 -318 -14 -173 -6 -347 -13 -388 -16 l-74 -6 6 -74 c7 -91
-2 -94 -83 -31 -30 24 -101 78 -157 121 -57 42 -103 79 -103 82 0 10 62 95
129 179 36 45 84 117 106 159 25 48 45 75 55 74 8 -2 23 -32 36 -73z"/>
</g>
</svg>