<svg xmlns="http://www.w3.org/2000/svg" viewBox="0 0 223.000000 112.000000" fill="currentColor">
<g transform="translate(0.000000,112.000000) scale(0.100000,-0.100000)">
<path d="M180 913 c0 -36 39 -100 124 -206 160 -200 391 -363 626 -441 320
-106 618 -107 846 -2 90 42 96 43 85 14 -4 -13 -11 -44 -15 -70 -7 -46 -6 -48
17 -48 34 0 60 33 135 173 51 93 64 126 64 162 2 72 -4 73 -149 37 -71 -18
-150 -32 -178 -32 -61 0 -78 -10 -73 -41 3 -20 13 -26 73 -41 39 -9 72 -17 75
-17 11 -2 -41 -31 -100 -56 -172 -70 -451 -75 -676 -10 -241 69 -422 184 -576
365 -153 181 -217 240 -260 240 -13 0 -18 -8 -18 -27z"/>
</g>
</svg>