<svg xmlns="http://www.w3.org/2000/svg" viewBox="0 0 155.000000 129.000000" fill="currentColor">
<g transform="translate(0.000000,129.000000) scale(0.100000,-0.100000)">
<path d="M615 1100 c-32 -13 -61 -51 -79 -104 -22 -68 -20 -120 8 -202 30 -87
203 -475 219 -491 20 -21 70 -26 91 -10 17 12 21 30 24 108 3 75 -4 140 -33
319 -20 124 -46 245 -56 270 -26 59 -64 98 -108 110 -41 11 -40 11 -66 0z m77
-84 c24 -18 45 -80 73 -221 40 -197 57 -347 41 -363 -11 -11 -15 -8 -26 20 -7
18 -40 93 -73 167 -71 160 -75 174 -87 273 -11 93 0 138 33 138 12 0 30 -7 39
-14z M1209 635 c-71 -52 -143 -179 -174 -305 -21 -85 -14 -136 20 -152 31 -14
40 -8 186 148 153 162 172 201 129 272 -20 33 -71 62 -108 62 -10 0 -34 -11
-53 -25z m105 -70 c12 -12 13 -22 4 -46 -10 -28 -168 -210 -190 -218 -19 -6 1
79 34 152 47 103 113 151 152 112z M225 538 c-33 -19 -44 -41 -45 -84 0 -53
23 -82 103 -130 34 -21 100 -64 148 -96 47 -33 101 -61 121 -64 33 -6 35 -4
41 24 10 49 -8 90 -84 190 -83 108 -154 162 -221 168 -24 3 -52 -1 -63 -8z
m100 -87 c61 -29 159 -141 123 -141 -13 0 -82 39 -150 84 -34 22 -48 38 -48
54 0 27 21 28 75 3z"/>
</g>
</svg>