<svg xmlns="http://www.w3.org/2000/svg" viewBox="0 0 105.000000 128.000000" fill="currentColor">
<g transform="translate(0.000000,128.000000) scale(0.100000,-0.100000)">
<path d="M648 1089 c-14 -8 -18 -23 -18 -64 0 -45 8 -70 50 -152 65 -127 78
-142 125 -153 22 -5 41 -8 42 -6 11 10 44 261 40 300 -7 73 -27 86 -136 86
-47 0 -94 -5 -103 -11z m158 -94 c3 -14 3 -46 -1 -71 -5 -35 -10 -44 -23 -42
-20 4 -62 82 -62 115 0 20 5 23 40 23 34 0 41 -4 46 -25z M395 834 c-76 -39
-111 -98 -101 -169 6 -37 13 -48 37 -61 44 -22 248 -92 254 -86 3 3 5 30 5 60
0 105 -89 272 -144 272 -12 0 -34 -7 -51 -16z m63 -109 c6 -6 30 -80 27 -83
-2 -2 -21 2 -44 9 -37 11 -41 15 -41 44 0 17 3 35 7 38 6 6 42 0 51 -8z M200
399 c-14 -32 -20 -66 -20 -125 0 -93 13 -114 71 -114 90 0 243 63 259 106 21
55 16 62 -92 114 -57 27 -124 52 -150 56 l-48 6 -20 -43z m162 -80 c42 -23 13
-53 -62 -65 l-43 -7 6 33 c4 18 7 39 7 47 0 12 8 14 37 8 21 -4 46 -11 55 -16z"/>
</g>
</svg>