<svg xmlns="http://www.w3.org/2000/svg" viewBox="0 0 127.000000 160.000000" fill="currentColor">
<g transform="translate(0.000000,160.000000) scale(0.100000,-0.100000)">
<path d="M203 1410 c-31 -13 -30 -47 6 -190 33 -132 46 -209 65 -406 18 -179
41 -229 88 -192 8 8 34 87 58 183 23 94 60 232 81 308 22 76 45 169 51 207 17
101 19 100 -171 99 -86 0 -166 -4 -178 -9z m257 -108 c0 -41 -86 -376 -98
-380 -6 -2 -15 29 -22 70 -6 40 -24 127 -41 194 -16 66 -29 126 -29 132 0 8
29 12 95 12 l95 0 0 -28z M853 1073 c-26 -36 -88 -134 -138 -217 -50 -83 -113
-186 -139 -228 -33 -52 -50 -92 -53 -122 -10 -82 28 -75 204 36 317 201 383
251 383 291 0 23 -119 256 -148 290 -30 34 -58 21 -109 -50z m129 -131 c49
-88 46 -109 -20 -157 -52 -38 -237 -150 -266 -161 -16 -6 -17 -4 -11 16 4 13
22 46 40 74 17 28 60 103 95 166 34 63 67 121 73 128 22 27 49 7 89 -66z M840
386 c-220 -65 -234 -72 -238 -113 -3 -29 0 -32 45 -47 26 -8 68 -18 93 -22 25
-4 50 -10 55 -14 12 -10 151 -30 204 -30 58 0 69 20 77 132 9 122 3 148 -34
147 -15 0 -106 -24 -202 -53z m160 -95 c0 -63 -14 -68 -113 -46 -83 18 -107
30 -92 44 15 14 135 49 173 50 32 1 32 1 32 -48z"/>
</g>
</svg>