<svg xmlns="http://www.w3.org/2000/svg" viewBox="0 0 87.000000 127.000000" fill="currentColor">
<g transform="translate(0.000000,127.000000) scale(0.100000,-0.100000)">
<path d="M468 1078 c-8 -8 -20 -45 -27 -88 -23 -135 -68 -206 -175 -275 -66
-42 -95 -79 -79 -104 5 -9 35 -28 65 -42 74 -36 103 -74 122 -158 9 -39 16
-76 16 -82 0 -7 9 -48 21 -91 20 -74 23 -78 49 -78 34 0 40 13 40 93 1 109 16
196 43 235 15 24 49 51 95 76 91 50 95 70 21 120 -87 58 -101 88 -116 250 -12
134 -19 155 -49 156 -5 0 -17 -6 -26 -12z"/>
</g>
</svg>