<svg xmlns="http://www.w3.org/2000/svg" viewBox="0 0 223.000000 138.000000" fill="currentColor">
<g transform="translate(0.000000,138.000000) scale(0.100000,-0.100000)">
<path d="M1305 1167 c-41 -23 -74 -52 -106 -94 l-47 -61 -37 25 c-20 14 -62
36 -92 50 -49 22 -65 25 -128 20 -161 -12 -250 -91 -295 -262 -7 -27 -16 -53
-19 -57 -4 -4 -48 0 -98 8 -85 15 -96 15 -143 -1 -97 -32 -144 -96 -156 -213
-13 -119 44 -210 192 -308 207 -136 293 -142 884 -59 432 61 592 85 634 96
130 35 190 129 172 272 -23 178 -124 277 -271 265 l-54 -5 -6 38 c-9 53 -66
168 -105 213 -18 20 -53 51 -78 68 -38 26 -57 32 -116 35 -66 4 -75 2 -131
-30z m173 -57 c28 0 124 -96 152 -149 9 -20 28 -68 40 -107 l23 -71 85 -7
c101 -8 133 -23 183 -90 40 -53 53 -103 43 -168 -10 -67 -30 -96 -83 -123 -63
-31 -115 -43 -271 -60 -471 -52 -920 -65 -1080 -32 -168 35 -278 108 -306 203
-27 93 5 166 90 209 60 30 75 28 193 -33 50 -26 94 -44 98 -40 11 11 25 80 25
129 0 63 27 149 57 180 13 15 47 39 75 54 83 45 167 36 248 -25 101 -78 130
-77 171 1 54 101 119 144 199 134 19 -3 45 -5 58 -5z"/>
</g>
</svg>