<svg xmlns="http://www.w3.org/2000/svg" viewBox="0 0 127.000000 123.000000" fill="currentColor">
<g transform="translate(0.000000,123.000000) scale(0.100000,-0.100000)">
<path d="M581 1018 c-6 -18 -20 -107 -31 -198 -11 -91 -23 -172 -26 -181 -3
-12 -33 12 -114 91 -103 101 -173 150 -213 150 -29 0 -20 -61 23 -171 61 -151
79 -229 88 -378 8 -122 11 -136 31 -153 26 -20 64 -23 138 -9 27 6 138 19 247
31 108 11 213 26 233 33 66 22 71 39 87 267 9 124 25 256 41 334 20 102 23
131 13 138 -25 16 -53 2 -86 -42 -19 -25 -39 -46 -46 -48 -16 -4 -123 -153
-141 -196 -8 -20 -19 -36 -23 -36 -4 0 -26 60 -47 133 -61 202 -97 267 -149
267 -8 0 -19 -15 -25 -32z m134 -364 c27 -91 54 -168 60 -170 6 -3 23 -1 37 5
19 7 31 25 48 73 53 147 134 259 115 161 -11 -61 -24 -212 -25 -286 0 -45 -4
-69 -12 -72 -7 -2 -79 -11 -160 -19 -81 -9 -199 -27 -263 -42 -63 -15 -118
-25 -121 -21 -3 3 -10 57 -15 119 -4 62 -17 145 -27 185 -24 90 -15 112 28 63
16 -19 49 -66 72 -105 54 -91 67 -105 94 -105 31 0 41 34 63 222 10 85 21 160
25 167 16 26 34 -13 81 -175z m225 -353 c0 -16 -10 -18 -125 -34 -200 -28
-228 -30 -223 -15 9 27 348 75 348 49z"/>
</g>
</svg>