<svg xmlns="http://www.w3.org/2000/svg" viewBox="0 0 79.000000 100.000000" fill="currentColor">
<g transform="translate(0.000000,100.000000) scale(0.100000,-0.100000)">
<path d="M411 783 c-6 -21 -18 -69 -27 -106 -23 -93 -61 -127 -156 -141 -46
-7 -48 -9 -48 -40 0 -31 2 -32 75 -54 l75 -22 0 -84 c0 -127 9 -176 32 -176
30 0 65 42 84 104 14 46 22 56 40 56 12 0 27 -7 35 -16 14 -17 51 -37 87 -48
20 -7 22 -4 22 31 0 25 -12 62 -35 103 -42 80 -43 103 -5 147 20 22 30 45 30
65 l0 31 -59 -7 -58 -7 -5 86 c-2 47 -9 89 -14 94 -5 5 -21 11 -36 15 -25 6
-28 3 -37 -31z"/>
</g>
</svg>