<svg xmlns="http://www.w3.org/2000/svg" viewBox="0 0 111.000000 137.000000" fill="currentColor">
<g transform="translate(0.000000,137.000000) scale(0.100000,-0.100000)">
<path d="M573 1129 c6 -69 8 -73 35 -65 15 5 22 19 27 56 8 60 3 70 -37 70
l-31 0 6 -61z M556 978 c-3 -7 -14 -58 -26 -113 -12 -55 -28 -110 -36 -122 -8
-12 -32 -27 -55 -33 -37 -10 -40 -13 -37 -43 3 -28 8 -32 45 -42 23 -5 46 -14
52 -20 5 -5 11 -54 13 -107 4 -113 13 -131 56 -106 21 13 32 33 48 90 28 99
36 113 89 138 42 20 46 25 43 54 -3 26 -9 33 -43 44 -22 7 -42 18 -46 23 -3 6
-10 45 -13 88 -4 42 -12 95 -18 119 -9 37 -14 42 -40 42 -16 0 -30 -6 -32 -12z
M187 692 c-3 -4 -3 -19 0 -35 5 -24 10 -27 43 -27 53 0 70 8 70 35 0 18 -7 24
-37 29 -51 8 -71 8 -76 -2z M830 669 c0 -31 22 -49 61 -49 33 0 41 4 49 26 6
14 10 27 10 30 0 2 -27 4 -60 4 -36 0 -60 -4 -60 -11z M505 267 c-10 -62 -3
-89 22 -98 33 -12 56 36 47 97 -6 40 -9 44 -35 44 -25 0 -28 -4 -34 -43z"/>
</g>
</svg>