<svg xmlns="http://www.w3.org/2000/svg" viewBox="0 0 138.000000 87.000000" fill="currentColor">
<g transform="translate(0.000000,87.000000) scale(0.100000,-0.100000)">
<path d="M690 675 c-16 -19 -10 -229 8 -261 6 -12 23 -24 37 -26 l25 -5 0 148
c0 122 -3 149 -14 149 -8 0 -21 2 -29 5 -7 3 -20 -1 -27 -10z M397 528 c-10
-38 55 -116 121 -144 41 -18 52 -12 52 28 0 82 -155 186 -173 116z M1010 533
c-14 -3 -31 -10 -38 -16 -17 -14 -82 -142 -82 -161 0 -8 13 -19 30 -24 28 -10
31 -8 75 46 46 58 70 117 59 146 -3 9 -9 15 -13 15 -3 -1 -17 -4 -31 -6z M186
284 c-12 -32 -4 -41 62 -62 79 -25 111 -27 136 -9 25 18 8 49 -38 71 -46 22
-152 22 -160 0z M1051 240 c-46 -11 -61 -29 -50 -59 9 -23 11 -24 97 -18 113
7 122 11 122 53 l0 34 -67 -1 c-38 -1 -83 -5 -102 -9z"/>
</g>
</svg>