<svg xmlns="http://www.w3.org/2000/svg" viewBox="0 0 163.000000 153.000000" fill="currentColor">
<g transform="translate(0.000000,153.000000) scale(0.100000,-0.100000)">
<path d="M927 1339 c-18 -11 -158 -231 -204 -324 -17 -33 -43 -95 -58 -137
-15 -43 -29 -78 -31 -78 -3 0 -67 41 -145 91 -200 129 -277 159 -297 115 -11
-26 -7 -36 55 -116 123 -162 197 -383 210 -624 l6 -109 61 7 c185 20 268 25
431 26 99 1 189 -2 201 -5 40 -12 50 14 57 142 13 257 76 446 198 597 61 77
64 83 51 104 -21 32 -207 -42 -356 -142 -38 -25 -70 -46 -72 -46 -2 0 -4 25
-4 56 0 93 -22 345 -34 392 -12 48 -39 68 -69 51z m17 -231 c14 -202 29 -354
37 -375 13 -36 39 -27 114 43 69 63 187 134 193 115 2 -5 -10 -36 -26 -68 -69
-137 -122 -346 -122 -487 0 -91 -5 -98 -55 -85 -22 6 -114 13 -205 16 -133 4
-182 2 -248 -11 -46 -9 -87 -14 -92 -11 -6 3 -10 25 -10 48 0 121 -53 325
-124 481 -47 102 -35 111 53 40 82 -67 136 -94 188 -94 l40 0 48 113 c74 173
174 367 189 367 10 0 15 -24 20 -92z M638 431 c-37 -6 -78 -32 -78 -50 0 -9
494 -21 518 -13 23 8 12 30 -20 41 -83 27 -315 39 -420 22z"/>
</g>
</svg>