<svg xmlns="http://www.w3.org/2000/svg" viewBox="0 0 135.000000 82.000000" fill="currentColor">
<g transform="translate(0.000000,82.000000) scale(0.100000,-0.100000)">
<path d="M612 538 c7 -127 24 -168 68 -168 l30 0 0 83 c-1 50 -8 101 -18 132
-15 46 -20 50 -51 53 l-34 3 5 -103z M897 580 c-39 -46 -74 -152 -63 -194 10
-39 49 -35 74 7 30 48 64 155 60 191 -4 45 -30 44 -71 -4z M326 494 c-13 -33
-4 -51 54 -112 63 -66 138 -110 152 -89 15 24 7 50 -29 94 -47 57 -129 123
-153 123 -10 0 -21 -7 -24 -16z M1101 463 c-17 -21 -39 -47 -49 -58 -30 -31
-54 -84 -47 -105 7 -23 31 -33 53 -21 44 24 132 152 132 192 0 25 -4 29 -29
29 -21 0 -37 -10 -60 -37z M184 246 c-20 -53 47 -90 154 -84 49 3 57 6 57 23
0 46 -195 102 -211 61z"/>
</g>
</svg>