<svg xmlns="http://www.w3.org/2000/svg" viewBox="0 0 128.000000 119.000000" fill="currentColor">
<g transform="translate(0.000000,119.000000) scale(0.100000,-0.100000)">
<path d="M600 1000 c-15 -9 -10 -125 10 -243 12 -64 13 -67 40 -67 25 0 29 4
35 40 4 22 4 70 0 107 -12 132 -15 142 -44 157 -16 9 -33 11 -41 6z M895 650
c-73 -15 -95 -28 -95 -54 0 -13 6 -26 13 -29 23 -8 286 8 298 20 6 6 9 23 7
39 l-3 29 -90 2 c-49 0 -108 -3 -130 -7z M315 634 c-118 -24 -123 -25 -129
-47 -16 -59 10 -64 179 -34 l130 23 3 32 3 32 -83 -1 c-46 -1 -92 -3 -103 -5z
M629 459 c-7 -14 -10 -64 -8 -140 4 -106 6 -121 26 -141 19 -19 25 -20 49 -10
26 12 26 13 19 95 -9 115 -25 201 -38 209 -21 13 -36 9 -48 -13z"/>
</g>
</svg>