<svg xmlns="http://www.w3.org/2000/svg" viewBox="0 0 91.000000 64.000000" fill="currentColor">
<g transform="translate(0.000000,64.000000) scale(0.100000,-0.100000)">
<path d="M226 371 c-25 -49 -46 -103 -46 -119 0 -62 56 -81 108 -37 37 31 39
31 64 0 27 -35 68 -33 113 6 19 17 35 26 35 21 0 -20 52 -72 72 -72 11 0 37 9
58 21 l37 21 26 -26 c44 -44 57 -35 57 38 0 36 -5 68 -11 72 -18 10 -104 7
-127 -5 -19 -10 -22 -8 -28 16 -4 16 -12 31 -18 35 -19 13 -71 9 -92 -7 -25
-19 -35 -19 -28 0 9 23 -23 65 -49 65 -13 0 -32 -7 -43 -15 -30 -22 -34 -18
-34 30 0 41 -2 45 -24 45 -20 0 -31 -15 -70 -89z"/>
</g>
</svg>