<svg xmlns="http://www.w3.org/2000/svg" viewBox="0 0 178.000000 183.000000" fill="currentColor">
<g transform="translate(0.000000,183.000000) scale(0.100000,-0.100000)">
<path d="M860 1630 c-100 -27 -300 -127 -377 -190 -264 -214 -381 -647 -247
-913 37 -74 172 -202 275 -260 238 -134 428 -136 694 -7 196 95 341 272 392
476 24 98 23 308 -1 389 -29 98 -86 195 -159 272 -65 68 -203 169 -304 222
-64 34 -171 38 -273 11z m360 -146 c121 -58 252 -211 299 -351 27 -79 37 -235
22 -331 -37 -237 -208 -425 -469 -514 -112 -38 -231 -47 -319 -24 -140 37
-290 124 -385 223 -72 76 -96 125 -108 220 -28 219 69 475 241 639 60 57 129
104 129 87 0 -3 -35 -43 -78 -87 -87 -90 -162 -203 -194 -292 -42 -118 -34
-318 14 -379 26 -33 42 -32 33 3 -44 174 -10 346 99 510 61 91 208 232 277
268 103 52 155 64 269 61 94 -2 112 -6 170 -33z"/>
</g>
</svg>