<svg xmlns="http://www.w3.org/2000/svg" viewBox="0 0 109.000000 132.000000" fill="currentColor">
<g transform="translate(0.000000,132.000000) scale(0.100000,-0.100000)">
<path d="M597 1122 c-24 -26 -36 -94 -39 -219 -3 -122 3 -139 43 -125 23 9 25
18 45 173 20 149 20 165 6 177 -22 17 -36 15 -55 -6z M825 914 c-70 -36 -161
-150 -151 -189 12 -48 69 -23 146 62 28 32 58 71 67 86 27 53 -2 72 -62 41z
M272 888 c6 -59 167 -163 201 -129 27 27 -50 110 -139 147 -53 22 -66 19 -62
-18z M383 650 c-102 -21 -203 -98 -203 -155 0 -31 70 -17 154 31 107 60 128
78 124 106 -3 26 -17 29 -75 18z M717 593 c-4 -3 -7 -16 -7 -28 0 -16 18 -32
73 -63 59 -34 125 -62 144 -62 2 0 3 11 3 24 0 55 -179 164 -213 129z M551
518 c-14 -40 -44 -304 -37 -332 5 -22 12 -27 34 -24 24 3 30 11 50 71 24 72
40 234 28 281 -9 35 -62 38 -75 4z"/>
</g>
</svg>