<svg xmlns="http://www.w3.org/2000/svg" viewBox="0 0 90.000000 99.000000" fill="currentColor">
<g transform="translate(0.000000,99.000000) scale(0.100000,-0.100000)">
<path d="M325 791 c-64 -38 -74 -70 -100 -326 -9 -82 -23 -177 -32 -211 -20
-74 -14 -94 28 -94 36 0 199 79 291 141 74 50 194 163 214 201 23 44 18 121
-8 145 -52 47 -110 53 -178 18 -37 -19 -50 -4 -50 57 0 44 -3 50 -32 68 -41
25 -94 25 -133 1z m90 -91 c4 -16 -1 -56 -9 -90 -21 -81 -21 -150 -1 -150 9 0
19 10 24 23 5 12 19 32 32 44 13 12 33 31 43 43 35 36 133 53 156 25 22 -27 1
-72 -59 -128 -80 -73 -291 -211 -304 -197 -3 3 2 86 9 185 18 228 31 275 79
275 18 0 25 -7 30 -30z"/>
</g>
</svg>