<svg xmlns="http://www.w3.org/2000/svg" viewBox="0 0 278.000000 142.000000" fill="currentColor">
<g transform="translate(0.000000,142.000000) scale(0.100000,-0.100000)">
<path d="M281 1227 c-8 -8 -11 -111 -11 -344 0 -283 2 -339 16 -373 9 -22 25
-45 35 -50 20 -11 151 -12 219 -2 34 5 48 13 59 34 25 44 6 53 -112 53 l-102
0 -7 110 c-4 61 -11 200 -17 310 -6 110 -14 213 -19 229 -9 32 -43 51 -61 33z
M1480 921 c0 -263 2 -300 16 -305 32 -12 42 -6 49 34 8 46 14 49 41 19 29 -34
95 -79 105 -73 15 9 10 78 -7 102 -8 12 -28 29 -45 37 -41 22 -38 56 11 121
47 60 57 107 24 112 -22 3 -76 -49 -96 -94 -6 -13 -17 -24 -25 -24 -10 0 -13
33 -13 163 0 190 -3 207 -36 207 l-24 0 0 -299z M1816 1004 c-13 -33 -6 -201
10 -250 34 -102 88 -145 149 -119 26 10 35 11 35 2 0 -28 -43 -78 -97 -112
-116 -74 -162 -138 -163 -226 0 -56 23 -89 83 -118 62 -30 90 -27 138 16 53
48 84 111 103 211 19 103 33 129 90 176 65 53 62 69 -14 60 l-60 -7 0 192 0
191 -30 0 c-17 0 -30 -5 -30 -12 -1 -28 -29 -215 -36 -233 -11 -30 -35 -55
-54 -55 -14 0 -20 19 -34 104 -9 58 -16 114 -16 126 0 19 -44 70 -60 70 -4 0
-11 -7 -14 -16z m184 -569 c0 -62 -34 -147 -70 -173 -34 -25 -40 -26 -74 -11
-64 29 -30 124 72 202 54 41 72 37 72 -18z M1187 976 c-28 -22 -47 -100 -47
-195 0 -105 13 -156 50 -193 24 -24 36 -28 84 -28 37 0 60 5 71 17 20 19 35
56 35 84 0 16 -5 18 -27 13 -16 -3 -41 -13 -57 -20 -37 -18 -33 -19 -51 16
-17 33 -21 185 -5 210 7 12 14 12 43 2 44 -16 44 -16 50 15 7 37 0 49 -38 73
-37 23 -82 25 -108 6z M734 895 c-19 -68 -16 -293 5 -336 15 -31 49 -49 91
-49 30 0 72 40 85 81 10 30 39 20 43 -16 5 -39 19 -55 49 -55 l25 0 -6 188
c-9 237 -10 244 -44 240 -24 -3 -27 -10 -52 -113 -41 -174 -66 -225 -109 -225
-7 0 -11 35 -12 93 -1 50 -4 126 -8 167 -5 67 -8 75 -28 78 -19 3 -24 -5 -39
-53z M2272 480 c-34 -4 -64 -9 -67 -12 -3 -2 -8 -19 -11 -38 l-7 -33 164 6
c177 6 262 21 267 49 2 12 -7 20 -35 27 -42 12 -212 12 -311 1z M1160 439
c-121 -11 -452 -62 -800 -125 -186 -33 -180 -31 -180 -56 0 -21 1 -21 173 -15
94 3 249 15 342 26 198 23 374 37 645 51 252 13 290 18 290 40 0 13 -22 24
-87 43 -133 41 -226 49 -383 36z"/>
</g>
</svg>