<svg xmlns="http://www.w3.org/2000/svg" viewBox="0 0 56.000000 94.000000" fill="currentColor">
<g transform="translate(0.000000,94.000000) scale(0.100000,-0.100000)">
<path d="M249 751 c-57 -18 -70 -31 -67 -64 2 -25 13 -38 50 -63 l47 -32 -38
-25 c-27 -18 -40 -35 -45 -59 -7 -34 1 -45 49 -73 16 -10 15 -14 -14 -42 -38
-39 -40 -71 -5 -113 23 -27 26 -37 20 -75 -5 -43 -4 -45 18 -45 14 0 38 13 54
30 27 27 29 33 22 67 -5 21 -13 39 -18 41 -40 13 -52 52 -16 52 8 0 28 9 43
21 24 17 27 26 22 48 -4 14 -21 35 -39 46 -35 23 -42 45 -13 45 28 0 81 48 81
73 0 31 -10 43 -52 60 -46 19 -48 32 -7 52 22 12 29 22 27 38 -3 19 -10 22
-48 24 -25 1 -57 -2 -71 -6z"/>
</g>
</svg>