<svg xmlns="http://www.w3.org/2000/svg" viewBox="0 0 172.000000 134.000000" fill="currentColor">
<g transform="translate(0.000000,134.000000) scale(0.100000,-0.100000)">
<path d="M1337 1127 c-8 -18 -18 -74 -22 -124 l-7 -92 -55 -26 c-48 -22 -54
-27 -48 -47 11 -36 18 -39 68 -29 37 6 47 5 51 -6 4 -8 6 -106 6 -217 0 -255
14 -309 75 -286 l28 11 -6 242 c-4 133 -3 247 1 253 4 6 34 15 67 20 55 8 60
11 63 36 4 30 0 31 -89 43 -54 7 -58 14 -60 115 -2 91 -10 121 -36 131 -18 6
-24 3 -36 -24z M187 1099 c-3 -11 1 -100 9 -197 8 -98 17 -276 20 -397 6 -232
13 -279 43 -316 17 -22 23 -22 156 -20 168 3 205 14 205 62 l0 32 -150 -5
-150 -6 0 47 c0 226 -40 750 -60 799 -13 30 -65 31 -73 1z M1034 721 c-28 -13
-45 -29 -55 -52 -17 -42 -18 -151 -1 -172 7 -8 46 -30 87 -48 70 -32 75 -36
75 -65 0 -28 -4 -31 -47 -43 -65 -16 -94 -40 -87 -69 6 -20 12 -22 78 -22 66
0 75 2 98 28 39 41 48 65 48 125 0 66 -13 80 -102 112 l-63 23 -3 47 c-4 58 4
65 75 65 28 0 55 4 58 10 3 5 -1 22 -9 38 -11 22 -25 31 -53 36 -52 8 -53 8
-99 -13z M713 653 c-24 -85 15 -382 54 -411 15 -10 48 -8 62 4 8 7 -19 256
-34 324 -8 36 -17 75 -20 88 -8 34 -52 30 -62 -5z"/>
</g>
</svg>