<svg xmlns="http://www.w3.org/2000/svg" viewBox="0 0 110.000000 192.000000" fill="currentColor">
<g transform="translate(0.000000,192.000000) scale(0.100000,-0.100000)">
<path d="M541 1729 c-41 -5 -79 -13 -84 -18 -14 -14 -235 -538 -257 -610 -25
-79 -25 -117 -3 -130 10 -5 81 -14 158 -20 76 -7 141 -14 144 -17 11 -11 -19
-64 -93 -166 -98 -135 -183 -289 -192 -345 -9 -59 2 -113 24 -113 9 0 37 23
62 51 25 28 99 111 165 183 66 72 165 185 220 250 55 66 135 159 178 208 127
147 110 180 -117 220 -71 13 -131 28 -133 35 -5 13 109 208 180 305 26 37 51
83 54 102 5 31 2 37 -28 55 -28 17 -49 21 -119 20 -47 -1 -118 -5 -159 -10z
m194 -101 c-4 -13 -49 -93 -100 -178 -151 -253 -150 -252 -77 -273 26 -8 90
-20 142 -27 97 -13 140 -29 140 -55 0 -8 -25 -39 -55 -70 -30 -31 -65 -71 -77
-88 -36 -52 -183 -228 -234 -281 -79 -82 -63 -34 40 119 60 88 99 157 103 179
7 42 14 40 -184 65 -79 9 -145 20 -148 22 -8 9 22 101 92 284 38 99 78 202 88
230 32 87 47 95 170 95 106 0 106 0 100 -22z M590 413 c-35 -21 -86 -59 -113
-85 -43 -40 -47 -49 -38 -67 19 -35 56 -25 159 42 114 74 125 86 116 121 -9
37 -46 34 -124 -11z M545 219 c-4 -5 -4 -21 -1 -35 6 -23 10 -24 90 -24 100 0
124 15 80 49 -21 17 -41 21 -95 21 -37 0 -71 -5 -74 -11z"/>
</g>
</svg>