<svg xmlns="http://www.w3.org/2000/svg" viewBox="0 0 108.000000 103.000000" fill="currentColor">
<g transform="translate(0.000000,103.000000) scale(0.100000,-0.100000)">
<path d="M566 834 c-10 -25 -7 -170 4 -198 12 -33 43 -34 58 -1 7 14 12 66 12
114 0 72 -3 90 -16 95 -28 11 -52 6 -58 -10z M183 559 c4 -13 7 -32 7 -41 0
-16 14 -18 150 -18 143 0 150 1 150 20 0 37 -54 54 -189 58 l-124 4 6 -23z
M723 550 c-16 -6 -23 -18 -23 -35 l0 -25 110 0 110 0 0 29 c0 21 -6 30 -22 35
-34 9 -150 6 -175 -4z M577 423 c-11 -18 -27 -131 -27 -190 0 -56 2 -63 20
-64 11 -1 26 -2 33 -3 28 -2 49 181 27 238 -9 25 -43 36 -53 19z"/>
</g>
</svg>