<svg xmlns="http://www.w3.org/2000/svg" viewBox="0 0 89.000000 296.000000" fill="currentColor">
<g transform="translate(0.000000,296.000000) scale(0.100000,-0.100000)">
<path d="M321 2764 c-57 -20 -117 -59 -131 -83 -15 -28 -12 -81 4 -87 8 -3 43
15 79 39 41 28 87 50 121 58 52 11 58 11 111 -16 88 -42 124 -115 125 -248 0
-92 -27 -198 -102 -402 -147 -397 -153 -505 -38 -629 65 -70 88 -106 67 -106
-16 0 -80 -65 -97 -100 -45 -86 -53 -254 -19 -403 29 -132 38 -228 28 -307
-14 -116 -83 -227 -156 -251 -25 -8 -33 -16 -33 -34 0 -38 52 -47 107 -17 36
19 107 108 131 162 48 112 55 254 21 427 -28 145 -28 279 0 353 28 74 85 130
140 137 33 5 42 10 48 31 4 16 1 27 -8 33 -56 31 -163 115 -186 146 -26 33
-28 43 -27 117 1 97 16 151 100 362 97 247 115 318 115 449 0 209 -43 304
-163 360 -63 30 -167 33 -237 9z"/>
</g>
</svg>