<svg xmlns="http://www.w3.org/2000/svg" viewBox="0 0 93.000000 126.000000" fill="currentColor">
<g transform="translate(0.000000,126.000000) scale(0.100000,-0.100000)">
<path d="M510 1078 c-13 -98 -43 -227 -64 -269 -38 -75 -108 -144 -189 -185
-73 -38 -85 -52 -71 -92 10 -28 32 -38 147 -67 78 -20 79 -21 124 -180 28 -99
34 -110 64 -118 30 -8 46 16 59 93 14 83 68 175 124 209 83 52 88 86 21 133
-37 26 -51 46 -85 124 -41 94 -59 182 -60 297 l0 57 -35 0 c-19 0 -35 -1 -35
-2z m29 -370 c15 -51 47 -105 80 -135 l24 -23 -28 -37 c-41 -55 -77 -93 -90
-93 -6 0 -19 16 -29 35 -17 31 -96 95 -118 95 -14 0 -9 19 15 55 12 19 27 35
34 35 6 0 25 25 42 55 17 30 37 55 45 55 7 0 18 -19 25 -42z"/>
</g>
</svg>