<svg xmlns="http://www.w3.org/2000/svg" viewBox="0 0 89.000000 103.000000" fill="currentColor">
<g transform="translate(0.000000,103.000000) scale(0.100000,-0.100000)">
<path d="M447 828 c-8 -13 -27 -82 -42 -153 l-28 -130 -99 -24 -100 -23 7 -36
c4 -21 8 -38 9 -39 1 -1 35 -6 74 -9 66 -6 72 -9 72 -29 0 -19 -16 -112 -36
-203 -4 -20 -1 -22 35 -22 36 0 41 4 66 48 41 70 75 113 85 107 5 -3 26 -32
47 -63 20 -31 38 -58 39 -60 1 -2 16 4 34 13 26 14 30 20 26 43 -13 61 -25
195 -20 204 4 6 31 21 60 34 30 13 54 26 54 29 0 3 -7 19 -15 35 -15 29 -18
30 -83 30 l-68 0 -22 118 c-17 91 -26 121 -43 135 -28 22 -36 22 -52 -5z"/>
</g>
</svg>