<svg xmlns="http://www.w3.org/2000/svg" viewBox="0 0 79.000000 157.000000" fill="currentColor">
<g transform="translate(0.000000,157.000000) scale(0.100000,-0.100000)">
<path d="M370 1371 c-17 -33 -12 -52 40 -130 93 -143 117 -233 107 -410 -7
-120 -29 -203 -82 -301 -19 -36 -45 -84 -57 -108 -24 -45 -38 -54 -38 -23 0
18 -35 39 -46 29 -2 -3 -29 -53 -59 -112 -84 -163 -71 -181 86 -122 117 45
164 68 163 81 0 6 -17 18 -37 28 -38 19 -49 37 -23 37 17 0 85 100 126 185 16
34 41 103 56 154 24 86 26 103 21 225 -7 176 -37 267 -134 403 -59 84 -100
105 -123 64z"/>
</g>
</svg>