<svg xmlns="http://www.w3.org/2000/svg" viewBox="0 0 87.000000 132.000000" fill="currentColor">
<g transform="translate(0.000000,132.000000) scale(0.100000,-0.100000)">
<path d="M382 1128 c-15 -20 -20 -43 -42 -193 -25 -174 -50 -246 -107 -301
-71 -69 -66 -103 20 -139 20 -8 37 -22 37 -30 0 -27 138 -292 155 -299 40 -15
50 -6 77 66 15 40 31 87 34 103 11 47 39 98 87 154 25 29 49 70 55 91 9 38 9
39 -37 71 -93 66 -128 127 -169 297 -20 85 -37 131 -56 156 -29 39 -38 43 -54
24z m75 -347 c23 -62 53 -109 101 -154 l39 -38 -42 -65 c-24 -36 -54 -89 -66
-119 -13 -30 -29 -55 -35 -55 -18 0 -41 32 -68 91 -13 30 -36 70 -51 87 l-27
33 26 72 c15 40 39 107 54 150 30 87 36 87 69 -2z"/>
</g>
</svg>