<svg xmlns="http://www.w3.org/2000/svg" viewBox="0 0 211.000000 190.000000" fill="currentColor">
<g transform="translate(0.000000,190.000000) scale(0.100000,-0.100000)">
<path d="M1566 1704 c-13 -33 -6 -54 17 -54 38 0 67 -12 67 -26 0 -8 -8 -14
-17 -14 -29 0 -115 -55 -176 -110 -42 -38 -66 -72 -93 -128 -93 -200 -96 -205
-144 -229 -27 -13 -81 -26 -132 -32 -111 -13 -154 -35 -244 -125 -55 -55 -80
-91 -112 -157 l-41 -87 -68 -17 c-175 -46 -300 -137 -364 -266 -48 -96 -68
-158 -76 -229 -7 -69 4 -80 45 -45 22 18 38 50 62 122 43 131 61 163 117 213
56 50 122 81 216 103 l67 15 6 -26 c16 -75 49 -157 77 -194 51 -65 79 -82 152
-86 61 -4 66 -3 95 26 27 27 30 37 30 92 0 75 -18 117 -71 164 -40 37 -148 96
-174 96 -23 0 -18 44 12 107 49 99 171 186 305 218 112 26 108 30 108 -80 0
-162 28 -248 100 -305 73 -58 170 -75 227 -40 46 28 64 61 70 130 5 54 2 67
-27 127 -42 85 -130 175 -205 209 -30 14 -55 27 -55 28 0 10 65 176 82 209 33
65 137 163 210 197 95 45 103 42 68 -27 -16 -32 -32 -68 -35 -80 -6 -21 -3
-23 28 -23 30 0 42 8 93 68 32 37 82 93 111 124 51 55 63 86 45 115 -9 14 -61
20 -248 28 -105 4 -123 2 -128 -11z m-197 -706 c53 -31 130 -107 152 -150 24
-47 26 -134 2 -160 -35 -39 -127 -4 -166 64 -44 73 -64 268 -29 268 3 0 21
-10 41 -22z m-503 -403 c70 -35 95 -65 102 -120 6 -53 -4 -65 -54 -65 -55 0
-120 85 -138 178 -5 28 -3 32 17 32 13 0 46 -11 73 -25z"/>
</g>
</svg>