<svg xmlns="http://www.w3.org/2000/svg" viewBox="0 0 108.000000 112.000000" fill="currentColor">
<g transform="translate(0.000000,112.000000) scale(0.100000,-0.100000)">
<path d="M475 923 c-16 -8 -40 -24 -52 -35 -23 -22 -48 -107 -40 -138 4 -16
-3 -21 -50 -30 -99 -21 -165 -107 -149 -193 8 -43 51 -82 107 -97 l41 -11 -7
-50 c-18 -129 24 -209 108 -209 51 0 84 21 117 75 24 39 47 44 103 20 20 -8
59 -15 86 -15 43 0 52 4 79 35 17 19 34 50 37 69 8 39 -8 123 -30 166 -15 28
-14 30 20 56 71 54 99 150 56 193 -37 37 -138 35 -197 -4 l-24 -15 0 63 c0 54
-4 68 -25 91 -44 47 -121 60 -180 29z m131 -85 c13 -25 15 -47 9 -110 -6 -74
-5 -78 14 -78 12 0 21 6 21 13 0 7 22 19 50 26 27 7 52 17 56 22 3 5 21 9 39
9 29 0 36 -4 41 -27 6 -23 1 -32 -36 -65 -23 -21 -60 -43 -81 -50 -22 -6 -39
-15 -39 -21 0 -5 23 -30 50 -56 50 -47 50 -48 50 -109 0 -52 -3 -63 -21 -72
-34 -19 -71 -2 -125 56 -36 38 -56 53 -67 48 -9 -3 -26 -32 -38 -65 -26 -72
-78 -135 -102 -126 -53 20 -48 171 7 216 9 8 16 22 16 32 0 17 -8 19 -81 19
-100 0 -119 9 -119 56 0 26 8 43 29 65 38 38 80 38 150 -1 71 -39 83 -29 51
42 -44 100 -34 190 23 201 65 13 86 8 103 -25z M528 579 c-21 -12 -24 -59 -6
-77 33 -33 82 6 72 56 -7 34 -31 42 -66 21z"/>
</g>
</svg>