<svg xmlns="http://www.w3.org/2000/svg" viewBox="0 0 142.000000 129.000000" fill="currentColor">
<g transform="translate(0.000000,129.000000) scale(0.100000,-0.100000)">
<path d="M473 1089 c-70 -27 -117 -71 -108 -101 10 -33 54 -103 201 -320 72
-106 151 -227 177 -268 65 -106 98 -143 120 -135 9 4 17 17 17 29 0 27 -173
552 -232 706 l-43 110 -40 -1 c-22 0 -63 -9 -92 -20z M1035 841 c-16 -27 -35
-496 -21 -520 4 -6 15 -11 25 -11 14 0 27 21 51 83 18 45 64 148 102 229 38
81 68 155 66 165 -2 10 -19 26 -38 35 -45 22 -174 35 -185 19z M253 474 c-16
-7 -52 -66 -63 -104 -20 -69 -1 -82 239 -164 145 -50 224 -60 235 -30 9 23
-10 41 -144 149 -198 157 -218 168 -267 149z"/>
</g>
</svg>