<svg xmlns="http://www.w3.org/2000/svg" viewBox="0 0 95.000000 76.000000" fill="currentColor">
<g transform="translate(0.000000,76.000000) scale(0.100000,-0.100000)">
<path d="M440 559 c-13 -23 -5 -198 11 -262 8 -31 14 -38 32 -35 29 4 45 65
46 171 1 97 -17 147 -53 147 -15 0 -30 -8 -36 -21z M187 533 c-23 -22 20 -174
78 -278 44 -79 65 -98 99 -89 24 6 26 10 21 38 -19 94 -96 286 -129 319 -17
17 -57 23 -69 10z M687 478 c-59 -106 -83 -213 -50 -225 22 -9 52 30 109 140
54 105 56 140 7 145 -29 3 -34 -1 -66 -60z"/>
</g>
</svg>