<svg xmlns="http://www.w3.org/2000/svg" viewBox="0 0 155.000000 125.000000" fill="currentColor">
<g transform="translate(0.000000,125.000000) scale(0.100000,-0.100000)">
<path d="M358 1056 c-60 -22 -112 -95 -147 -211 -28 -87 -38 -276 -22 -390 13
-91 79 -245 106 -245 8 0 15 -7 15 -15 0 -39 142 -49 200 -14 42 26 53 39 89
109 53 101 62 197 36 375 -24 170 -79 310 -147 371 -30 28 -84 36 -130 20z
m130 -166 c54 -109 72 -203 72 -376 0 -141 -8 -178 -51 -232 -71 -91 -165 -55
-220 83 -21 55 -23 75 -23 230 0 161 1 173 27 238 15 38 41 87 58 108 26 34
37 40 63 37 28 -3 35 -11 74 -88z M1316 1043 c-19 -38 -62 -185 -76 -258 -6
-33 -13 -111 -17 -173 l-6 -114 34 4 33 3 49 195 c29 117 50 230 54 283 l6 87
-31 0 c-24 0 -35 -6 -46 -27z M819 933 c-27 -70 -49 -301 -49 -511 0 -101 0
-103 26 -112 14 -6 29 -10 33 -10 12 0 28 44 41 113 10 51 14 57 36 57 16 0
24 -6 24 -18 0 -28 67 -127 94 -140 31 -14 36 -8 36 46 0 54 -50 149 -86 162
-33 13 -30 33 9 77 74 83 84 117 41 127 -26 7 -31 4 -119 -68 l-31 -24 4 155
c4 124 2 157 -9 164 -24 15 -39 10 -50 -18z M1196 371 c-3 -5 -3 -23 0 -40 6
-30 9 -32 38 -25 42 8 48 16 40 48 -5 22 -12 26 -39 26 -19 0 -36 -4 -39 -9z"/>
</g>
</svg>