<svg xmlns="http://www.w3.org/2000/svg" viewBox="0 0 270.000000 70.000000" fill="currentColor">
<g transform="translate(0.000000,70.000000) scale(0.100000,-0.100000)">
<path d="M392 494 c-47 -23 -122 -95 -122 -116 0 -4 -6 -8 -13 -8 -14 0 -60
-85 -71 -133 -4 -17 -2 -35 5 -43 24 -29 48 -15 92 54 24 37 56 78 71 91 14
14 26 30 26 37 0 16 53 34 99 34 35 0 36 -1 70 -80 85 -204 153 -219 285 -63
37 43 81 88 99 101 62 44 129 23 200 -62 21 -25 51 -53 67 -61 38 -20 72 -6
150 59 30 25 59 46 65 46 5 0 18 -14 27 -30 26 -45 75 -72 124 -67 30 3 59 18
108 56 91 69 122 70 171 3 33 -46 69 -72 100 -72 8 0 50 25 94 55 44 30 85 55
90 55 5 0 39 -14 77 -32 l68 -32 120 12 c92 9 124 16 134 29 18 24 15 33 -10
33 -13 0 -74 5 -137 10 -98 9 -122 15 -166 40 -29 17 -66 30 -82 30 -17 0 -60
-19 -103 -45 -41 -24 -80 -45 -86 -45 -6 0 -34 23 -62 51 -52 51 -52 52 -107
47 -45 -4 -68 -13 -122 -50 -73 -50 -102 -62 -119 -50 -6 4 -25 28 -42 53 -32
47 -65 65 -99 52 -10 -4 -45 -31 -77 -60 -33 -29 -69 -53 -81 -53 -12 0 -45
24 -80 60 -58 58 -83 72 -155 84 -66 11 -99 -7 -195 -109 -49 -52 -95 -95
-101 -95 -7 0 -27 33 -46 73 -76 158 -151 198 -266 141z"/>
</g>
</svg>