<svg xmlns="http://www.w3.org/2000/svg" viewBox="0 0 203.000000 140.000000" fill="currentColor">
<g transform="translate(0.000000,140.000000) scale(0.100000,-0.100000)">
<path d="M1807 1209 c-10 -6 -48 -33 -84 -61 -37 -27 -126 -79 -200 -114 -127
-61 -133 -66 -133 -94 0 -27 3 -30 34 -30 18 0 53 7 76 15 24 8 45 13 47 11
17 -17 -261 -243 -462 -376 -230 -151 -501 -261 -790 -320 -107 -22 -119 -28
-113 -56 3 -17 13 -19 99 -18 382 5 875 266 1337 707 40 38 75 68 77 65 3 -2
0 -20 -5 -39 -12 -40 -13 -119 -2 -119 4 0 17 -3 28 -6 25 -7 30 6 111 241 48
142 53 198 18 202 -11 2 -28 -2 -38 -8z"/>
</g>
</svg>