<svg xmlns="http://www.w3.org/2000/svg" viewBox="0 0 166.000000 123.000000" fill="currentColor">
<g transform="translate(0.000000,123.000000) scale(0.100000,-0.100000)">
<path d="M392 1038 c-18 -18 -14 -68 14 -175 34 -131 40 -238 20 -332 -30
-144 -94 -241 -187 -286 -82 -39 -81 -85 2 -85 50 0 53 2 119 68 101 101 150
211 168 377 8 73 10 78 20 53 20 -47 90 -115 144 -138 82 -35 123 -24 209 57
38 36 71 64 73 62 2 -2 11 -19 20 -37 20 -40 70 -72 111 -72 17 0 58 13 92 29
l62 30 20 -43 c27 -54 87 -91 136 -82 46 9 85 42 85 73 0 25 -1 25 -58 18 -70
-8 -78 -1 -101 87 -10 38 -24 66 -37 75 -19 12 -26 9 -84 -37 -108 -86 -131
-83 -174 25 -44 108 -56 125 -87 125 -22 0 -28 -7 -39 -42 -29 -100 -86 -173
-143 -183 -30 -6 -42 -2 -72 20 -75 58 -168 196 -220 330 -15 39 -32 76 -37
83 -13 15 -40 16 -56 0z"/>
</g>
</svg>