<svg xmlns="http://www.w3.org/2000/svg" viewBox="0 0 81.000000 177.000000" fill="currentColor">
<g transform="translate(0.000000,177.000000) scale(0.100000,-0.100000)">
<path d="M414 1574 c-35 -17 -89 -79 -104 -119 -6 -15 -14 -76 -20 -137 -13
-150 -25 -664 -16 -710 4 -21 18 -51 32 -68 22 -26 33 -30 74 -30 l49 0 30 63
c34 69 179 657 188 762 8 91 -9 139 -72 201 -46 47 -59 54 -92 54 -21 0 -52
-7 -69 -16z m117 -102 c29 -26 32 -35 37 -103 4 -68 -3 -103 -73 -389 -81
-334 -103 -400 -131 -400 -15 0 -16 14 -10 163 3 89 10 268 15 397 9 254 19
301 69 340 34 27 56 25 93 -8z M240 408 c-51 -28 -74 -128 -43 -188 23 -45 54
-60 124 -60 73 0 102 22 125 94 24 76 14 119 -33 141 -48 23 -141 30 -173 13z
m114 -74 c20 -8 21 -57 2 -73 -8 -7 -30 -11 -48 -9 -31 3 -33 5 -36 46 -3 42
-3 42 32 42 19 0 41 -3 50 -6z"/>
</g>
</svg>