<svg xmlns="http://www.w3.org/2000/svg" viewBox="0 0 71.000000 84.000000" fill="currentColor">
<g transform="translate(0.000000,84.000000) scale(0.100000,-0.100000)">
<path d="M316 638 c-9 -13 -19 -55 -23 -93 l-8 -69 -46 -14 c-42 -13 -47 -18
-53 -50 -3 -20 -4 -38 -2 -40 2 -2 26 -6 53 -10 l48 -7 5 -95 c5 -88 7 -95 26
-98 17 -2 30 10 59 58 26 44 42 59 53 56 10 -3 37 -6 61 -8 41 -2 45 0 54 25
7 21 5 32 -6 45 -35 39 -38 69 -12 118 39 74 33 84 -53 84 l-47 0 -21 58 c-17
48 -25 58 -47 60 -18 2 -30 -4 -41 -20z"/>
</g>
</svg>