<svg xmlns="http://www.w3.org/2000/svg" viewBox="0 0 133.000000 147.000000" fill="currentColor">
<g transform="translate(0.000000,147.000000) scale(0.100000,-0.100000)">
<path d="M615 1160 c-95 -190 -147 -240 -290 -282 -65 -19 -75 -25 -73 -43 5
-34 53 -49 119 -37 76 14 128 50 201 141 114 142 188 351 123 351 -9 0 -39
-49 -80 -130z M836 1228 c-4 -13 -10 -69 -13 -125 -8 -133 5 -178 68 -247 64
-70 134 -107 215 -114 35 -2 64 -2 64 2 0 25 -31 51 -101 86 -113 57 -136 83
-154 166 -8 38 -15 108 -15 155 0 70 -3 88 -16 93 -28 11 -42 6 -48 -16z M265
656 c-5 -3 -27 -7 -47 -11 -32 -5 -38 -10 -38 -30 0 -14 6 -25 13 -25 54 0
187 -25 223 -41 87 -41 158 -152 169 -264 10 -98 13 -105 40 -105 50 0 59 137
15 253 -26 68 -113 168 -174 199 -38 20 -172 35 -201 24z M968 616 c-140 -51
-238 -208 -238 -383 l0 -74 27 3 c25 3 28 9 52 109 43 175 97 236 258 290 55
18 64 24 61 43 -3 18 -10 21 -63 23 -33 2 -77 -4 -97 -11z"/>
</g>
</svg>