<svg xmlns="http://www.w3.org/2000/svg" viewBox="0 0 61.000000 131.000000" fill="currentColor">
<g transform="translate(0.000000,131.000000) scale(0.100000,-0.100000)">
<path d="M308 1113 c-27 -33 -97 -148 -113 -185 -32 -77 -13 -109 73 -123 23
-4 42 -8 42 -10 0 -2 -11 -23 -25 -46 -14 -24 -25 -59 -25 -76 0 -30 3 -33 30
-33 35 0 34 1 15 -36 -23 -45 -19 -81 11 -101 23 -15 26 -21 20 -59 -3 -23
-16 -75 -30 -115 -13 -41 -28 -95 -31 -121 -6 -43 -5 -48 11 -48 15 0 31 29
72 124 54 128 65 191 42 251 -8 22 -6 32 16 61 17 22 27 48 28 72 1 35 -1 37
-31 40 -18 2 -33 5 -33 6 0 2 7 20 16 41 8 21 13 49 9 62 -6 27 -59 63 -94 63
-31 0 -25 23 35 128 51 91 53 122 5 122 -15 0 -34 -8 -43 -17z"/>
</g>
</svg>