<svg xmlns="http://www.w3.org/2000/svg" viewBox="0 0 100.000000 112.000000" fill="currentColor">
<g transform="translate(0.000000,112.000000) scale(0.100000,-0.100000)">
<path d="M180 910 c0 -35 33 -71 92 -101 47 -24 48 -24 48 7 0 19 -15 42 -49
75 -58 58 -91 65 -91 19z M758 913 c-29 -32 -78 -104 -78 -115 0 -5 15 -8 33
-8 23 0 41 8 59 28 31 32 68 92 68 110 0 23 -55 13 -82 -15z M447 878 c-8 -29
-23 -80 -32 -113 -17 -59 -50 -101 -118 -150 -18 -13 -29 -30 -30 -48 -2 -26
3 -31 61 -54 34 -14 67 -33 72 -42 9 -18 40 -212 40 -255 0 -19 7 -29 26 -36
14 -6 29 -10 33 -10 4 0 20 51 35 114 35 145 58 179 142 217 56 26 64 33 64
57 0 25 -7 30 -77 56 -43 16 -83 34 -89 40 -7 6 -19 63 -28 126 -23 152 -22
150 -56 150 -26 0 -30 -5 -43 -52z m68 -254 c10 -19 27 -40 37 -45 10 -5 18
-16 18 -24 0 -19 -58 -75 -79 -75 -9 0 -34 18 -55 39 l-38 39 28 51 c36 63 61
67 89 15z M680 317 c0 -24 9 -41 33 -64 28 -26 82 -53 108 -53 18 0 8 39 -16
69 -21 24 -106 81 -121 81 -2 0 -4 -15 -4 -33z M248 293 c-26 -29 -50 -70 -62
-110 -7 -21 -4 -23 27 -23 36 0 49 11 86 73 43 71 3 117 -51 60z"/>
</g>
</svg>