<svg xmlns="http://www.w3.org/2000/svg" viewBox="0 0 263.000000 139.000000" fill="currentColor">
<g transform="translate(0.000000,139.000000) scale(0.100000,-0.100000)">
<path d="M544 1176 c-4 -22 5 -94 21 -188 16 -84 28 -159 29 -167 1 -15 -99
-45 -191 -57 l-51 -6 -11 58 c-30 156 -74 310 -97 342 -1 2 -15 -3 -32 -12
l-29 -15 23 -138 c13 -76 27 -173 30 -216 7 -74 6 -78 -14 -84 -16 -4 -42 -47
-42 -69 0 -2 25 -4 55 -4 l55 0 0 -33 c0 -43 56 -307 67 -317 4 -4 20 -10 34
-14 23 -5 28 -2 33 19 5 21 -21 245 -40 336 -5 25 0 28 58 52 35 13 87 26 117
28 l54 4 19 -85 c59 -279 56 -270 90 -270 l31 0 -5 108 c-3 59 -15 157 -26
217 -11 61 -30 166 -42 235 -12 69 -35 167 -52 218 -26 82 -31 92 -53 92 -20
0 -25 -7 -31 -34z M2373 1168 c-34 -38 -37 -50 -43 -152 -5 -87 -9 -101 -29
-117 -23 -19 -69 -17 -82 2 -3 5 -14 52 -24 105 -15 79 -23 99 -43 112 -34 22
-42 5 -42 -93 0 -102 13 -148 55 -193 33 -36 35 -37 105 -35 l71 2 -7 -62 c-9
-94 -23 -148 -46 -185 -23 -37 -20 -36 -129 -16 -33 6 -37 4 -43 -21 -13 -50
50 -95 132 -95 46 0 53 3 91 46 24 25 49 60 57 79 7 18 18 103 24 189 6 86 19
191 29 234 23 98 18 186 -12 207 -29 20 -40 19 -64 -7z M1814 1080 c-46 -10
-125 -70 -120 -89 7 -23 54 -449 61 -551 3 -47 8 -108 11 -136 5 -51 6 -52 32
-45 l27 7 3 192 2 192 34 0 c51 0 101 54 116 127 17 82 9 192 -19 236 -18 29
-93 80 -112 76 -2 -1 -18 -4 -35 -9z m74 -102 c19 -19 22 -31 22 -105 0 -110
-16 -143 -71 -143 -25 0 -27 4 -37 73 -24 161 -25 184 -5 196 23 14 62 5 91
-21z M1380 974 c-34 -16 -67 -24 -90 -22 -33 3 -35 1 -38 -28 -2 -17 6 -84 17
-150 11 -65 29 -207 41 -314 11 -107 25 -219 31 -247 9 -47 13 -53 35 -53 37
0 45 36 43 206 0 84 2 157 5 163 4 5 20 12 37 16 88 19 135 116 127 261 -4 70
-9 89 -32 123 -26 37 -77 71 -108 71 -7 0 -38 -12 -68 -26z m112 -81 c15 -13
18 -32 18 -104 0 -48 -5 -100 -12 -114 -13 -30 -55 -55 -91 -55 -22 0 -26 7
-41 65 -9 35 -16 91 -16 124 0 53 3 61 28 80 33 25 89 27 114 4z M934 861
c-101 -46 -153 -212 -108 -344 19 -57 45 -77 100 -77 49 0 85 28 105 83 15 43
44 50 53 13 5 -19 15 -25 52 -31 52 -7 49 -9 58 27 5 23 2 27 -24 33 -20 4
-32 14 -35 28 -3 12 -14 67 -25 122 -11 55 -23 112 -26 126 -9 42 -80 52 -150
20z m76 -76 c16 -19 4 -122 -22 -192 -16 -43 -24 -53 -49 -58 -17 -4 -33 -4
-37 -1 -3 4 -8 35 -10 70 -4 67 6 99 55 164 26 35 44 40 63 17z"/>
</g>
</svg>