<svg xmlns="http://www.w3.org/2000/svg" viewBox="0 0 82.000000 89.000000" fill="currentColor">
<g transform="translate(0.000000,89.000000) scale(0.100000,-0.100000)">
<path d="M324 686 c-54 -25 -144 -118 -144 -149 0 -34 20 -57 48 -57 27 0 110
20 145 35 12 5 7 -9 -18 -45 -59 -88 -47 -114 52 -108 l69 3 -4 -63 c-5 -74 1
-82 66 -82 40 0 42 -1 42 -30 0 -27 3 -30 30 -30 35 0 50 23 50 78 0 44 -13
59 -58 68 l-30 6 5 73 6 72 -33 12 c-18 6 -42 11 -53 11 -15 0 -17 4 -11 18 4
9 8 40 9 67 l0 50 -48 3 c-40 3 -47 6 -43 20 19 65 19 72 -5 72 -13 0 -47 -11
-75 -24z"/>
</g>
</svg>