<svg xmlns="http://www.w3.org/2000/svg" viewBox="0 0 74.000000 140.000000" fill="currentColor">
<g transform="translate(0.000000,140.000000) scale(0.100000,-0.100000)">
<path d="M389 1188 c-89 -105 -179 -219 -194 -248 -10 -19 -14 -42 -11 -56 11
-41 46 -46 143 -24 47 11 88 19 90 16 2 -2 -9 -31 -26 -65 -36 -71 -41 -131
-12 -160 15 -15 28 -18 65 -14 25 3 46 4 46 2 0 -2 -7 -26 -15 -53 -8 -27 -15
-70 -15 -96 0 -38 4 -51 23 -63 21 -14 22 -21 22 -138 0 -107 2 -124 17 -127
27 -5 42 61 41 183 0 61 -3 126 -7 146 -5 23 -2 54 8 89 18 61 21 116 6 125
-5 3 -32 9 -60 12 -63 7 -64 20 -10 118 22 41 40 86 40 103 0 46 -23 54 -115
41 -42 -6 -78 -9 -81 -7 -8 9 30 68 44 68 15 0 67 80 83 128 9 28 9 36 -2 43
-26 16 -52 9 -80 -23z"/>
</g>
</svg>