<svg xmlns="http://www.w3.org/2000/svg" viewBox="0 0 208.000000 125.000000" fill="currentColor">
<g transform="translate(0.000000,125.000000) scale(0.100000,-0.100000)">
<path d="M1170 1045 c-14 -36 -13 -127 6 -392 17 -251 25 -297 55 -313 26 -14
35 -7 43 32 8 36 -23 669 -33 679 -3 4 -18 9 -34 13 -23 5 -29 3 -37 -19z
M1386 1054 c-9 -25 -7 -697 3 -713 11 -17 47 -6 56 17 4 9 9 169 12 354 l6
337 -27 11 c-36 13 -43 13 -50 -6z M556 1024 c-3 -8 -6 -91 -6 -184 l0 -168
-67 -6 c-38 -4 -85 -9 -105 -11 l-38 -5 0 49 c0 62 -29 294 -38 303 -4 4 -20
10 -36 14 l-29 7 5 -184 c3 -101 9 -191 12 -200 5 -12 0 -18 -24 -22 -19 -4
-34 -15 -39 -29 -10 -26 2 -38 36 -38 12 0 24 -4 27 -8 3 -4 16 -76 30 -159
14 -83 32 -167 40 -186 13 -32 17 -35 43 -28 31 8 30 -2 13 141 -5 46 -10 121
-10 166 0 82 0 82 28 88 25 5 159 25 173 26 3 0 9 -45 12 -99 3 -55 11 -138
18 -185 12 -85 12 -86 41 -86 l28 0 0 123 c-1 181 -41 648 -59 676 -12 18 -49
22 -55 5z M1667 716 c-99 -37 -147 -127 -134 -253 10 -99 66 -153 156 -153 28
0 65 7 80 15 54 28 109 110 138 208 13 46 13 51 -5 71 -10 11 -28 37 -40 56
-11 19 -30 41 -42 48 -33 20 -110 24 -153 8z m143 -96 c0 -4 -6 -13 -13 -19
-11 -8 -16 -5 -25 15 -16 34 -16 35 13 22 14 -6 25 -14 25 -18z m-105 -30 c21
-21 53 -46 72 -55 41 -20 44 -55 10 -106 -43 -64 -141 -62 -167 2 -20 48 9
199 37 199 5 0 26 -18 48 -40z M880 709 c-50 -18 -98 -117 -107 -221 -5 -49
-2 -63 21 -102 40 -69 115 -116 184 -116 56 0 142 63 142 104 0 14 -62 16 -82
2 -47 -33 -127 -15 -157 36 l-20 32 37 16 c53 24 100 66 122 111 24 46 25 80
5 119 -14 28 -20 30 -68 29 -28 0 -63 -5 -77 -10z m80 -90 c0 -15 -72 -89 -86
-89 -27 0 -10 45 34 92 19 21 29 25 39 17 7 -6 13 -15 13 -20z"/>
</g>
</svg>