<svg xmlns="http://www.w3.org/2000/svg" viewBox="0 0 95.000000 104.000000" fill="currentColor">
<g transform="translate(0.000000,104.000000) scale(0.100000,-0.100000)">
<path d="M649 833 c-11 -30 -3 -39 47 -49 58 -11 89 -2 92 27 3 22 -2 29 -29
38 -18 6 -47 11 -66 11 -27 0 -35 -5 -44 -27z M530 622 c0 -37 28 -62 124
-112 102 -53 136 -52 136 6 0 22 -100 82 -180 110 -39 13 -74 24 -76 24 -2 0
-4 -13 -4 -28z M386 474 c-19 -49 20 -116 76 -128 23 -5 27 -2 33 23 8 36 -14
72 -60 101 -39 24 -41 24 -49 4z M184 443 c-10 -55 3 -219 21 -253 18 -35 16
-34 51 -18 26 12 26 14 21 83 -7 101 -45 225 -68 225 -13 0 -20 -11 -25 -37z"/>
</g>
</svg>