<svg xmlns="http://www.w3.org/2000/svg" viewBox="0 0 120.000000 122.000000" fill="currentColor">
<g transform="translate(0.000000,122.000000) scale(0.100000,-0.100000)">
<path d="M500 1001 c-41 -43 -60 -91 -60 -154 0 -35 -1 -37 -21 -26 -13 6 -51
9 -92 7 -65 -4 -72 -6 -99 -38 -16 -19 -34 -52 -40 -74 -10 -33 -9 -43 8 -74
10 -20 42 -52 70 -72 l50 -35 -38 -49 c-36 -45 -39 -53 -32 -90 15 -91 51
-126 132 -126 56 0 83 10 119 42 l22 20 16 -38 c39 -95 111 -142 201 -131 52
5 94 39 126 101 26 50 21 148 -10 219 -20 46 -20 47 -2 47 74 0 148 69 176
167 14 49 14 55 -4 96 -23 51 -74 87 -123 87 -36 0 -112 -31 -141 -57 -15 -14
-17 -12 -22 24 -22 143 -52 184 -141 191 -55 4 -56 4 -95 -37z m120 -69 c26
-21 36 -102 25 -215 -6 -74 -7 -76 -37 -82 -35 -8 -48 5 -48 46 0 15 -7 46
-16 70 -22 60 -21 154 2 180 21 24 45 24 74 1z m321 -159 c23 -60 -15 -125
-91 -157 -19 -8 -56 -24 -83 -35 l-47 -20 40 -81 c52 -103 55 -166 11 -211
-35 -35 -77 -38 -114 -9 -32 25 -47 75 -47 154 l0 59 -32 -7 c-21 -3 -47 -21
-73 -50 -49 -54 -72 -66 -125 -66 -43 0 -47 5 -52 54 -3 26 4 34 61 73 36 23
73 43 83 43 10 0 26 9 35 19 16 19 16 19 32 1 9 -11 28 -22 43 -26 22 -5 33 0
58 24 16 17 30 40 30 51 0 13 6 21 18 21 10 0 26 17 40 43 62 117 187 188 213
120z m-516 -52 c28 -16 68 -44 89 -63 l40 -34 -23 -23 c-20 -20 -30 -23 -70
-18 -97 12 -149 35 -178 78 l-26 40 23 24 c32 34 81 33 145 -4z"/>
</g>
</svg>