<svg xmlns="http://www.w3.org/2000/svg" viewBox="0 0 176.000000 169.000000" fill="currentColor">
<g transform="translate(0.000000,169.000000) scale(0.100000,-0.100000)">
<path d="M408 1501 c-74 -24 -165 -109 -201 -189 -28 -63 -30 -232 -3 -307 27
-74 61 -115 97 -115 37 0 37 14 4 152 -14 57 -25 117 -25 134 0 84 63 194 131
229 43 23 99 18 160 -12 66 -34 102 -94 120 -199 l11 -70 -36 -57 c-43 -67
-66 -127 -66 -171 0 -41 16 -56 56 -56 88 0 121 46 136 190 l11 101 46 33
c108 78 205 104 274 71 68 -32 123 -151 134 -287 6 -75 5 -78 -18 -87 -123
-46 -209 -116 -209 -170 0 -21 9 -41 26 -58 23 -23 31 -25 79 -20 38 4 68 15
101 37 44 31 104 109 104 137 0 14 13 16 47 7 47 -13 102 -156 85 -219 -7 -26
-14 -31 -62 -40 -66 -12 -91 -44 -74 -92 10 -27 12 -28 70 -25 l61 3 23 -53
c13 -31 24 -83 27 -126 7 -86 22 -101 60 -58 34 40 32 139 -4 221 -17 38 -26
75 -24 100 7 136 4 171 -18 220 -28 63 -63 100 -123 131 -51 26 -47 17 -68
164 -20 144 -118 289 -206 306 -78 15 -203 -24 -310 -96 l-32 -21 -16 47 c-49
146 -154 234 -296 249 -25 2 -57 0 -72 -4z m836 -710 c9 -13 -90 -101 -114
-101 -28 0 -25 22 8 52 56 52 94 69 106 49z"/>
</g>
</svg>