<svg xmlns="http://www.w3.org/2000/svg" viewBox="0 0 84.000000 95.000000" fill="currentColor">
<g transform="translate(0.000000,95.000000) scale(0.100000,-0.100000)">
<path d="M274 745 c-16 -24 -15 -27 26 -81 52 -70 73 -118 65 -154 -3 -15 -38
-70 -77 -122 -39 -51 -79 -111 -89 -133 -20 -43 -25 -85 -10 -85 5 0 16 -3 24
-6 10 -3 49 35 117 115 57 67 106 121 109 121 3 -1 30 -39 60 -86 50 -80 56
-85 85 -82 50 5 47 43 -14 170 -29 59 -50 114 -47 121 3 8 37 38 76 67 79 58
92 81 65 112 -26 28 -61 18 -140 -38 -36 -26 -66 -45 -68 -43 -88 123 -97 133
-138 143 -22 5 -31 1 -44 -19z"/>
</g>
</svg>