<svg xmlns="http://www.w3.org/2000/svg" viewBox="0 0 82.000000 108.000000" fill="currentColor">
<g transform="translate(0.000000,108.000000) scale(0.100000,-0.100000)">
<path d="M261 882 c-53 -26 -80 -89 -80 -182 0 -87 59 -448 82 -502 17 -41 43
-49 89 -27 27 12 227 274 270 355 17 31 32 76 35 106 4 45 2 57 -18 82 -21 27
-25 28 -83 23 -34 -3 -71 -8 -83 -12 -21 -7 -23 -4 -23 35 0 113 -91 172 -189
122z m93 -83 c29 -34 30 -54 18 -206 -6 -65 -4 -84 6 -88 25 -9 30 -5 43 32
17 53 91 123 129 123 16 0 30 -1 30 -3 0 -2 -7 -28 -16 -57 -22 -73 -110 -210
-135 -210 -13 0 -27 -15 -41 -45 -16 -33 -28 -45 -44 -45 -26 0 -26 1 -53 136
-33 161 -45 299 -31 335 12 27 44 59 61 59 4 0 19 -14 33 -31z"/>
</g>
</svg>