<svg xmlns="http://www.w3.org/2000/svg" viewBox="0 0 89.000000 261.000000" fill="currentColor">
<g transform="translate(0.000000,261.000000) scale(0.100000,-0.100000)">
<path d="M344 2416 c-41 -18 -111 -82 -130 -117 -15 -29 -18 -76 -8 -103 8
-21 54 -21 54 -1 0 22 30 77 49 93 28 22 85 49 118 55 26 5 39 1 60 -17 27
-24 28 -27 28 -123 -1 -94 -3 -107 -72 -318 -98 -301 -106 -334 -107 -450 -1
-124 6 -160 45 -219 l31 -46 2 -178 c2 -102 10 -230 20 -302 28 -194 6 -326
-67 -404 -29 -30 -36 -33 -71 -27 -33 5 -48 17 -62 49 -1 2 -13 0 -28 -4 -23
-6 -26 -11 -26 -54 0 -32 6 -52 18 -63 42 -38 156 -29 218 18 34 26 85 125
103 200 15 60 15 222 1 325 -5 41 -13 143 -16 225 l-7 150 81 -3 82 -4 35 35
c29 29 35 42 35 79 0 63 -31 90 -109 96 -48 3 -70 0 -114 -21 l-56 -25 -10 49
c-28 129 -11 225 95 549 66 203 67 206 68 320 1 104 -1 120 -24 165 -16 32
-36 55 -55 64 -42 21 -143 25 -181 7z m304 -1208 c3 -15 -4 -18 -42 -18 -46 0
-69 16 -45 31 24 16 83 6 87 -13z"/>
</g>
</svg>