<svg xmlns="http://www.w3.org/2000/svg" viewBox="0 0 84.000000 104.000000" fill="currentColor">
<g transform="translate(0.000000,104.000000) scale(0.100000,-0.100000)">
<path d="M253 843 c-25 -13 -38 -30 -54 -72 -29 -76 -23 -121 45 -374 31 -115
56 -210 56 -212 0 -2 9 -9 20 -15 37 -20 75 10 170 130 180 227 226 355 156
437 -18 21 -31 26 -68 26 -27 0 -59 -8 -79 -20 l-34 -20 -15 46 c-27 81 -116
114 -197 74z m114 -85 c14 -11 37 -81 53 -160 7 -36 17 -58 25 -58 7 0 25 24
40 53 36 68 54 89 79 85 18 -3 21 -9 18 -47 -3 -52 -16 -79 -93 -191 -79 -115
-94 -133 -109 -128 -7 2 -30 60 -52 128 -44 141 -65 271 -49 313 9 24 14 26
43 20 18 -3 38 -10 45 -15z"/>
</g>
</svg>