<svg xmlns="http://www.w3.org/2000/svg" viewBox="0 0 73.000000 128.000000" fill="currentColor">
<g transform="translate(0.000000,128.000000) scale(0.100000,-0.100000)">
<path d="M238 1084 c-43 -23 -58 -63 -58 -153 0 -103 22 -171 101 -316 68
-126 104 -165 150 -165 87 0 93 39 40 256 -22 93 -48 205 -58 249 -23 101 -57
145 -112 145 -20 -1 -48 -7 -63 -16z m76 -83 c11 -18 85 -347 92 -406 6 -54 5
-58 -9 -45 -8 8 -32 56 -52 105 -21 50 -48 115 -60 145 -24 56 -43 180 -30
199 8 13 52 15 59 2z M434 330 c-21 -8 -44 -56 -44 -91 0 -10 10 -30 23 -45
19 -21 32 -27 67 -27 35 0 48 6 67 27 22 26 29 68 17 101 -14 35 -83 54 -130
35z"/>
</g>
</svg>