<svg xmlns="http://www.w3.org/2000/svg" viewBox="0 0 132.000000 143.000000" fill="currentColor">
<g transform="translate(0.000000,143.000000) scale(0.100000,-0.100000)">
<path d="M573 1233 c-13 -35 19 -128 111 -320 52 -109 115 -258 141 -332 25
-74 50 -140 56 -148 14 -17 49 -17 50 0 6 74 -32 224 -99 387 -63 153 -174
388 -194 410 -23 24 -56 26 -65 3z M1008 1200 c-25 -15 -41 -72 -29 -103 19
-49 111 -43 131 8 14 37 13 50 -7 74 -21 24 -71 36 -95 21z M1044 985 c-14
-21 -16 -42 -11 -118 6 -98 27 -228 53 -340 13 -52 20 -67 31 -63 8 3 22 6 30
6 14 0 15 16 10 133 -8 152 -39 371 -57 392 -18 22 -37 18 -56 -10z M196 987
c-13 -9 -17 -23 -14 -52 l3 -40 50 0 c43 0 51 3 64 26 13 24 13 29 -2 53 -20
29 -70 36 -101 13z M354 795 c-4 -16 -1 -32 8 -43 76 -91 196 -219 214 -229
12 -7 25 -21 29 -32 9 -30 133 -143 152 -139 46 9 12 61 -201 313 -127 150
-187 189 -202 130z M237 411 c-7 -30 2 -37 108 -86 137 -64 233 -113 274 -141
20 -13 46 -24 58 -24 119 0 -160 207 -343 255 -76 20 -91 19 -97 -4z"/>
</g>
</svg>