<svg xmlns="http://www.w3.org/2000/svg" viewBox="0 0 132.000000 137.000000" fill="currentColor">
<g transform="translate(0.000000,137.000000) scale(0.100000,-0.100000)">
<path d="M635 1150 c-66 -22 -158 -49 -205 -60 -137 -32 -135 -31 -170 -124
-39 -102 -67 -200 -75 -268 -6 -46 -3 -58 17 -88 24 -35 504 -405 565 -435 44
-21 98 -19 121 5 10 11 40 79 66 152 165 454 212 611 197 652 -6 15 -59 54
-152 111 -180 111 -191 113 -364 55z m156 -120 c-1 -36 -4 -66 -6 -68 -8 -8
-49 12 -81 40 -61 54 -34 100 55 95 l35 -2 -3 -65z m149 15 c53 -27 68 -39 63
-51 -7 -18 -87 -57 -140 -69 l-33 -7 0 44 c0 69 11 118 27 118 7 0 45 -16 83
-35z m-382 -38 c2 -15 -4 -52 -12 -82 -19 -63 -26 -64 -105 -1 -59 47 -59 71
3 86 22 6 52 15 66 20 35 12 45 7 48 -23z m129 -44 c44 -44 54 -59 46 -72 -14
-22 -101 -63 -127 -59 -19 3 -21 8 -18 63 4 68 19 125 33 125 6 0 35 -25 66
-57z m-308 -47 c67 -50 127 -114 116 -125 -19 -17 -197 -82 -211 -77 -19 7
-18 25 6 126 24 99 27 110 36 110 3 0 27 -15 53 -34z m696 -5 c-10 -47 -183
-579 -196 -602 -6 -13 -15 -17 -20 -12 -9 9 -33 532 -25 541 12 12 213 100
229 101 15 1 17 -4 12 -28z m-275 -191 c0 -37 3 -142 7 -233 8 -202 -2 -214
-62 -79 -22 48 -63 132 -92 186 -29 55 -53 112 -53 128 0 26 7 32 63 58 118
53 137 45 137 -60z m-248 -17 c11 -13 201 -386 226 -445 9 -21 -21 -3 -79 48
-35 31 -122 100 -194 154 -72 53 -148 113 -170 132 -35 31 -38 37 -26 52 8 9
46 25 85 37 39 11 80 24 91 29 31 14 51 11 67 -7z"/>
</g>
</svg>