<svg xmlns="http://www.w3.org/2000/svg" viewBox="0 0 141.000000 171.000000" fill="currentColor">
<g transform="translate(0.000000,171.000000) scale(0.100000,-0.100000)">
<path d="M702 1518 c-7 -7 -12 -39 -12 -75 0 -72 12 -85 54 -58 35 23 37 94 4
125 -25 23 -30 24 -46 8z M677 1227 c-3 -8 -9 -51 -12 -95 -10 -110 -54 -181
-154 -248 -64 -42 -70 -49 -64 -73 8 -35 5 -33 65 -42 79 -12 107 -48 136
-171 22 -89 26 -97 53 -107 16 -5 30 -7 32 -3 2 4 17 50 32 102 33 112 68 155
134 166 50 8 68 21 76 56 7 25 3 29 -59 58 -92 44 -108 69 -139 219 -15 68
-30 128 -34 132 -17 17 -60 21 -66 6z M1108 833 c-26 -6 -22 -40 6 -58 16 -11
41 -15 78 -13 50 3 53 5 56 32 2 16 -2 32 -10 37 -13 9 -100 10 -130 2z M196
791 c-15 -17 -15 -20 1 -40 16 -20 23 -21 73 -14 53 8 55 9 58 41 l3 32 -59 0
c-45 0 -63 -4 -76 -19z M676 352 c-3 -4 -10 -37 -15 -71 -8 -52 -8 -67 5 -86
21 -32 36 -36 61 -16 20 15 21 22 15 96 -7 77 -8 80 -34 83 -14 2 -29 -1 -32
-6z"/>
</g>
</svg>