<svg xmlns="http://www.w3.org/2000/svg" viewBox="0 0 297.000000 201.000000" fill="currentColor">
<g transform="translate(0.000000,201.000000) scale(0.100000,-0.100000)">
<path d="M1171 1820 c-57 -12 -157 -60 -198 -94 -44 -37 -127 -163 -152 -232
-12 -31 -24 -83 -28 -115 -6 -58 -6 -59 -37 -59 -62 0 -102 -19 -154 -74 -51
-54 -64 -85 -66 -165 -1 -33 -3 -35 -49 -47 -75 -19 -156 -64 -194 -109 -142
-164 -144 -354 -4 -494 45 -45 96 -61 194 -61 69 0 77 -2 88 -22 21 -42 101
-107 153 -125 34 -12 82 -17 146 -18 89 0 100 2 172 37 43 20 94 54 116 77 22
23 48 41 58 41 9 0 41 -16 70 -36 44 -30 60 -36 104 -36 32 1 67 9 91 21 50
27 66 26 95 -1 57 -56 72 -67 121 -92 188 -94 383 -63 496 79 26 33 57 65 70
72 13 7 62 12 122 13 98 0 102 1 152 35 75 51 132 113 144 159 12 46 5 126
-16 166 -13 26 -13 28 25 49 44 24 97 81 111 119 22 57 -31 200 -101 276 -54
59 -91 70 -202 62 -77 -5 -88 -4 -88 10 0 29 -60 131 -103 174 -137 138 -323
155 -556 52 l-89 -40 -7 52 c-18 141 -115 259 -250 304 -73 25 -175 34 -234
22z m220 -100 c129 -50 169 -115 224 -366 8 -37 34 -37 73 0 82 80 240 134
356 121 72 -8 157 -38 194 -70 40 -33 88 -128 103 -202 12 -58 15 -63 40 -63
14 0 46 7 70 16 47 16 121 21 156 10 26 -8 87 -96 108 -156 29 -81 25 -92 -55
-169 l-73 -71 11 -39 c7 -21 12 -63 12 -93 0 -50 -4 -58 -42 -102 -79 -89
-172 -120 -256 -87 -29 12 -58 21 -65 21 -7 0 -25 -25 -41 -55 -75 -143 -229
-204 -401 -160 -66 18 -109 41 -175 95 -86 70 -112 75 -179 31 -36 -24 -48
-27 -73 -20 -31 9 -38 13 -102 66 -22 18 -46 33 -54 33 -9 0 -46 -29 -83 -65
-92 -89 -170 -125 -272 -127 -111 -1 -179 34 -270 141 -14 17 -29 21 -85 21
-93 0 -141 15 -183 60 -51 54 -73 105 -73 175 1 80 28 140 101 214 70 72 112
86 226 77 75 -5 77 -5 77 17 0 12 -11 39 -25 59 -40 60 -41 86 -4 142 32 47
90 85 131 86 9 0 31 -17 50 -38 36 -41 64 -57 73 -41 4 5 -1 40 -10 76 -33
133 8 267 117 387 76 81 143 108 258 102 55 -2 105 -12 141 -26z"/>
</g>
</svg>