<svg xmlns="http://www.w3.org/2000/svg" viewBox="0 0 86.000000 92.000000" fill="currentColor">
<g transform="translate(0.000000,92.000000) scale(0.100000,-0.100000)">
<path d="M408 723 c-9 -10 -31 -56 -48 -103 -37 -100 -55 -122 -126 -151 -77
-32 -75 -56 11 -98 68 -34 116 -83 153 -157 21 -42 38 -54 72 -54 13 0 20 11
25 38 16 90 73 176 124 187 15 3 39 16 54 28 l29 22 -21 27 c-12 15 -35 28
-56 32 -70 14 -114 72 -145 194 -6 23 -15 42 -20 42 -4 0 -15 2 -22 5 -8 3
-22 -2 -30 -12z m75 -217 l48 -43 -36 -67 c-24 -43 -43 -66 -55 -66 -18 0 -90
72 -90 91 0 10 44 91 63 117 13 17 17 16 70 -32z"/>
</g>
</svg>