<svg xmlns="http://www.w3.org/2000/svg" viewBox="0 0 378.000000 75.000000" fill="currentColor">
<g transform="translate(0.000000,75.000000) scale(0.100000,-0.100000)">
<path d="M553 528 c-46 -49 -157 -189 -181 -230 -9 -16 -21 -28 -28 -28 -6 0
-24 35 -39 78 -43 118 -73 175 -91 168 -9 -3 -20 -6 -25 -6 -20 0 -7 -74 30
-180 46 -129 62 -157 97 -166 43 -11 69 10 162 133 93 123 127 160 135 146 2
-4 15 -39 27 -78 49 -150 72 -185 120 -185 26 0 40 14 110 109 44 61 96 119
115 131 60 37 72 28 126 -95 27 -60 57 -116 67 -123 9 -7 33 -12 52 -10 30 3
44 15 113 101 43 53 89 104 102 113 26 17 65 11 65 -9 0 -26 69 -156 89 -166
45 -24 62 -14 168 106 44 50 61 47 101 -20 46 -77 70 -93 117 -77 20 7 59 32
86 56 61 54 87 56 123 9 17 -22 35 -35 50 -35 29 0 87 38 147 96 52 51 53 51
88 -38 49 -122 95 -137 212 -67 76 46 97 48 129 14 35 -38 91 -34 159 10 73
47 116 51 231 25 68 -16 110 -32 147 -57 65 -43 112 -55 177 -42 76 14 86 19
86 39 0 16 -8 18 -73 18 -65 -1 -83 4 -166 41 -106 48 -256 91 -317 91 -31 0
-55 -9 -93 -35 -60 -42 -84 -43 -133 -10 -48 33 -62 32 -149 -10 -41 -19 -86
-37 -101 -41 -25 -6 -28 -3 -28 20 0 33 -40 114 -72 143 -21 20 -26 20 -61 8
-20 -7 -58 -31 -82 -54 -71 -65 -86 -69 -124 -31 -27 28 -37 32 -69 28 -22 -3
-71 -27 -117 -57 l-79 -52 -30 58 c-27 50 -82 103 -107 103 -16 0 -94 -66
-104 -88 -5 -12 -15 -22 -21 -22 -6 0 -19 -9 -29 -20 -10 -11 -22 -20 -26 -20
-4 0 -24 33 -43 74 -20 41 -48 84 -62 95 -58 45 -132 18 -196 -72 -48 -68
-101 -127 -115 -127 -5 0 -26 39 -46 88 -20 48 -48 101 -61 117 -21 26 -30 30
-74 29 -37 0 -61 -7 -89 -26 -58 -39 -122 -108 -149 -161 -14 -27 -30 -47 -36
-45 -7 3 -29 56 -50 120 -57 170 -90 193 -165 116z"/>
</g>
</svg>