<svg xmlns="http://www.w3.org/2000/svg" viewBox="0 0 80.000000 67.000000" fill="currentColor">
<g transform="translate(0.000000,67.000000) scale(0.100000,-0.100000)">
<path d="M419 454 c-36 -38 -34 -38 -142 -18 l-37 7 6 -31 c5 -27 1 -36 -30
-65 -20 -19 -36 -39 -36 -45 0 -6 17 -16 38 -23 53 -17 52 -16 36 -61 -16 -46
-9 -61 27 -56 15 2 35 20 54 49 l30 46 64 -34 c74 -39 124 -42 129 -7 2 12 -8
35 -22 52 -15 16 -26 32 -26 35 0 3 25 9 56 13 47 5 57 10 65 31 12 33 4 43
-34 43 -18 0 -49 3 -70 7 -38 6 -39 7 -32 41 4 24 2 38 -7 43 -22 15 -33 10
-69 -27z"/>
</g>
</svg>