<svg xmlns="http://www.w3.org/2000/svg" viewBox="0 0 78.000000 82.000000" fill="currentColor">
<g transform="translate(0.000000,82.000000) scale(0.100000,-0.100000)">
<path d="M376 618 c-8 -13 -18 -51 -22 -85 -6 -61 -7 -61 -43 -68 -127 -23
-131 -25 -131 -55 0 -27 5 -30 79 -55 l78 -26 13 -75 c11 -61 17 -77 34 -84
28 -10 30 -9 51 54 11 31 24 56 30 56 7 0 39 -11 73 -25 34 -14 66 -25 72 -25
21 0 10 68 -15 98 -14 17 -30 44 -36 60 -9 26 -7 33 20 60 58 57 25 98 -59 73
-20 -6 -40 -11 -43 -11 -3 0 -11 25 -18 56 -10 44 -18 58 -36 65 -32 12 -30
12 -47 -13z"/>
</g>
</svg>