<svg xmlns="http://www.w3.org/2000/svg" viewBox="0 0 123.000000 121.000000" fill="currentColor">
<g transform="translate(0.000000,121.000000) scale(0.100000,-0.100000)">
<path d="M800 1024 c-130 -13 -212 -28 -218 -42 -12 -32 35 -52 119 -52 78 0
162 13 188 29 22 14 -16 73 -44 69 -5 -1 -26 -3 -45 -4z M600 790 c0 -52 276
-187 421 -206 44 -6 49 -5 49 13 0 10 -6 27 -12 36 -27 35 -388 177 -450 177
-4 0 -8 -9 -8 -20z M490 639 c0 -27 15 -46 98 -128 129 -127 193 -159 206
-103 5 24 -3 36 -77 105 -85 81 -166 141 -204 152 -21 6 -23 3 -23 -26z M335
571 c-13 -22 17 -96 85 -218 82 -144 93 -159 134 -180 l29 -15 -6 63 c-9 76
-36 138 -118 263 -54 83 -67 96 -90 96 -15 0 -30 -4 -34 -9z M180 523 c0 -25
22 -185 32 -230 11 -54 15 -57 57 -46 23 6 23 8 18 87 -4 70 -26 156 -46 178
-10 11 -61 21 -61 11z"/>
</g>
</svg>