<svg xmlns="http://www.w3.org/2000/svg" viewBox="0 0 174.000000 193.000000" fill="currentColor">
<g transform="translate(0.000000,193.000000) scale(0.100000,-0.100000)">
<path d="M437 1736 c-115 -42 -203 -152 -242 -301 -17 -68 -19 -179 -4 -245
18 -81 86 -203 178 -320 50 -63 119 -153 153 -200 50 -68 69 -86 92 -88 29 -4
29 -3 24 41 -7 63 -39 119 -124 222 -144 173 -202 276 -226 405 -21 115 10
230 88 325 43 53 117 81 193 72 40 -4 53 -12 93 -56 26 -29 53 -70 59 -92 11
-36 9 -49 -20 -135 -41 -122 -47 -218 -15 -261 18 -23 29 -28 63 -27 47 1 77
23 97 71 11 25 13 63 8 162 -8 146 -3 161 60 201 20 12 36 27 36 33 0 7 28 26
63 42 51 25 74 30 132 29 140 -1 246 -62 298 -172 30 -63 32 -74 32 -177 0
-106 -1 -113 -37 -188 -43 -90 -120 -173 -233 -252 -312 -217 -453 -339 -524
-450 -70 -111 -87 -215 -35 -215 25 0 38 16 116 137 96 150 149 199 413 384
68 47 164 127 222 184 85 84 108 114 139 179 33 69 38 89 42 176 5 106 -6 172
-43 255 -66 146 -251 259 -398 241 -88 -10 -148 -34 -247 -101 l-94 -63 -12
33 c-18 53 -70 111 -122 136 -58 29 -168 36 -225 15z"/>
</g>
</svg>