<svg xmlns="http://www.w3.org/2000/svg" viewBox="0 0 115.000000 94.000000" fill="currentColor">
<g transform="translate(0.000000,94.000000) scale(0.100000,-0.100000)">
<path d="M697 639 c-80 -67 -149 -129 -152 -140 -3 -10 -15 -21 -26 -24 -21
-7 -87 -60 -241 -193 -112 -96 -124 -122 -55 -122 35 0 64 13 162 71 66 40
163 94 215 122 240 125 381 211 387 236 12 49 -74 171 -121 171 -13 0 -79 -47
-169 -121z m187 25 c9 -4 16 -18 16 -34 0 -25 -13 -35 -154 -114 -85 -47 -157
-86 -161 -86 -24 0 17 41 130 133 132 106 141 112 169 101z"/>
</g>
</svg>