<svg xmlns="http://www.w3.org/2000/svg" viewBox="0 0 112.000000 144.000000" fill="currentColor">
<g transform="translate(0.000000,144.000000) scale(0.100000,-0.100000)">
<path d="M829 1253 c-29 -7 -77 -141 -63 -177 10 -25 51 -19 70 9 14 21 43
120 44 147 0 11 -33 25 -51 21z M490 1140 c-6 -11 -15 -95 -21 -187 -6 -93
-12 -177 -14 -188 -3 -15 -37 -33 -135 -74 -105 -43 -131 -58 -136 -77 -14
-56 29 -83 137 -85 30 0 77 -4 104 -7 l50 -7 5 -151 c6 -167 18 -204 66 -204
29 0 46 35 90 178 15 48 30 91 34 95 12 14 40 1 121 -53 52 -35 84 -50 108
-50 l34 0 -7 47 c-3 25 -25 80 -47 122 -23 42 -47 93 -55 114 l-14 38 45 46
c25 25 45 49 45 54 0 5 6 9 13 9 18 0 47 52 47 84 0 24 -4 26 -39 26 -22 0
-80 -11 -129 -24 l-90 -24 -37 106 c-41 117 -76 191 -100 216 -23 22 -62 20
-75 -4z"/>
</g>
</svg>