<svg xmlns="http://www.w3.org/2000/svg" viewBox="0 0 111.000000 165.000000" fill="currentColor">
<g transform="translate(0.000000,165.000000) scale(0.100000,-0.100000)">
<path d="M410 1463 c-47 -17 -80 -37 -80 -48 0 -7 -9 -15 -20 -18 -25 -7 -96
-118 -115 -181 -31 -103 -12 -201 38 -194 20 3 23 11 30 87 14 157 85 253 205
277 30 6 31 4 46 -47 20 -67 20 -159 1 -229 -8 -30 -21 -81 -27 -113 -16 -81
-6 -85 96 -36 145 70 257 63 272 -17 11 -57 -2 -113 -32 -145 -30 -31 -62 -44
-137 -54 -47 -6 -48 -7 -45 -37 3 -28 9 -33 54 -48 113 -39 169 -99 162 -173
-4 -44 -52 -70 -121 -67 -29 1 -68 3 -87 4 l-35 1 -5 -76 c-3 -43 -11 -83 -19
-93 -20 -24 -68 -20 -97 9 -39 39 -56 33 -52 -17 2 -35 9 -46 37 -65 23 -15
49 -23 79 -23 39 0 50 5 88 43 32 32 45 55 50 84 l6 41 53 4 c62 5 140 42 167
79 49 65 31 168 -43 243 -27 27 -49 53 -49 57 0 4 9 10 20 14 31 10 78 84 90
142 19 88 -13 152 -102 209 -44 28 -91 30 -162 9 -27 -8 -54 -15 -61 -15 -8 0
-11 42 -11 143 1 157 -6 181 -64 231 -31 25 -89 34 -130 19z"/>
</g>
</svg>