<svg xmlns="http://www.w3.org/2000/svg" viewBox="0 0 82.000000 118.000000" fill="currentColor">
<g transform="translate(0.000000,118.000000) scale(0.100000,-0.100000)">
<path d="M430 997 c0 -2 -14 -51 -31 -107 -38 -129 -73 -181 -146 -215 -87
-42 -99 -93 -29 -127 38 -18 49 -31 75 -87 20 -45 33 -95 40 -158 15 -121 25
-143 66 -143 37 0 46 16 65 113 22 110 56 164 136 214 65 41 66 61 6 130 -72
84 -90 128 -110 261 -17 115 -18 117 -45 120 -15 2 -27 1 -27 -1z m20 -290 c0
-7 18 -43 40 -80 38 -63 49 -97 32 -97 -5 0 -28 -18 -52 -40 -24 -22 -47 -40
-51 -40 -5 0 -20 24 -35 53 -14 28 -34 61 -44 72 -22 25 -11 61 23 74 13 5 30
23 37 40 12 31 50 44 50 18z"/>
</g>
</svg>