<svg xmlns="http://www.w3.org/2000/svg" viewBox="0 0 78.000000 69.000000" fill="currentColor">
<g transform="translate(0.000000,69.000000) scale(0.100000,-0.100000)">
<path d="M191 497 c-14 -14 -13 -84 2 -168 l12 -66 33 14 32 13 0 83 c0 87
-12 120 -49 130 -11 2 -24 0 -30 -6z M401 420 c-32 -45 -71 -138 -71 -171 0
-16 5 -20 27 -17 43 5 115 104 121 168 3 31 1 50 -6 50 -6 0 -17 3 -26 6 -10
4 -25 -8 -45 -36z M472 245 c-27 -12 -61 -60 -49 -71 1 -2 32 -4 68 -6 82 -3
133 16 125 46 -3 12 -6 27 -6 34 0 17 -96 15 -138 -3z"/>
</g>
</svg>