<svg xmlns="http://www.w3.org/2000/svg" viewBox="0 0 107.000000 132.000000" fill="currentColor">
<g transform="translate(0.000000,132.000000) scale(0.100000,-0.100000)">
<path d="M234 1126 c-54 -24 -59 -72 -40 -341 8 -116 18 -281 22 -368 6 -131
10 -162 25 -180 21 -26 44 -17 71 29 26 44 198 732 198 791 0 17 -8 41 -18 53
-17 21 -29 24 -123 27 -75 2 -113 0 -135 -11z m201 -76 c7 -24 -112 -522 -131
-548 -7 -9 -15 -14 -19 -10 -13 13 -42 534 -32 562 5 13 22 16 91 16 76 0 85
-2 91 -20z M716 752 c-13 -21 -50 -99 -81 -173 -32 -74 -75 -169 -97 -212 -76
-152 -89 -207 -51 -207 42 0 345 363 406 487 l21 43 -20 27 c-26 36 -91 73
-126 73 -21 0 -33 -9 -52 -38z m104 -93 c-24 -44 -165 -239 -174 -239 -5 0 -6
13 -3 30 8 38 102 238 124 262 16 18 18 18 41 -5 21 -22 23 -27 12 -48z"/>
</g>
</svg>