<svg xmlns="http://www.w3.org/2000/svg" viewBox="0 0 100.000000 117.000000" fill="currentColor">
<g transform="translate(0.000000,117.000000) scale(0.100000,-0.100000)">
<path d="M394 975 c-11 -27 6 -79 49 -152 23 -40 71 -123 107 -184 64 -109 84
-129 131 -129 42 0 22 56 -87 249 -59 102 -116 196 -127 209 -23 25 -65 29
-73 7z M180 482 c0 -37 28 -63 223 -206 150 -109 196 -132 212 -106 13 21 -29
73 -103 128 -42 31 -108 82 -147 113 -74 59 -112 82 -157 93 -26 6 -28 4 -28
-22z M730 403 c0 -71 75 -140 100 -93 17 31 11 51 -24 86 -43 43 -76 46 -76 7z"/>
</g>
</svg>