<svg xmlns="http://www.w3.org/2000/svg" viewBox="0 0 91.000000 120.000000" fill="currentColor">
<g transform="translate(0.000000,120.000000) scale(0.100000,-0.100000)">
<path d="M494 1010 c-57 -13 -100 -48 -160 -130 -174 -237 -198 -405 -86 -615
28 -51 47 -75 72 -87 61 -31 81 17 34 85 -57 84 -74 136 -74 228 0 114 24 189
99 307 65 102 84 120 154 146 26 10 47 19 47 21 0 2 -4 15 -10 29 -10 27 -22
30 -76 16z M695 851 c-106 -26 -195 -176 -195 -331 0 -100 36 -170 88 -170 22
0 24 3 18 38 -4 20 -10 76 -13 125 -5 85 -4 90 31 163 35 74 56 104 74 104 13
0 40 32 44 54 4 23 -7 26 -47 17z"/>
</g>
</svg>