<svg xmlns="http://www.w3.org/2000/svg" viewBox="0 0 152.000000 163.000000" fill="currentColor">
<g transform="translate(0.000000,163.000000) scale(0.100000,-0.100000)">
<path d="M429 1435 c-42 -23 -79 -103 -79 -171 1 -86 15 -137 70 -246 l48 -97
-56 -16 c-74 -22 -163 -69 -198 -106 -27 -29 -29 -35 -29 -118 0 -81 2 -91 28
-124 15 -20 41 -44 57 -52 69 -36 234 -27 308 16 18 10 35 19 36 19 2 0 1 -42
-2 -93 -8 -166 40 -265 136 -281 63 -10 114 8 155 53 43 48 52 94 44 231 l-5
97 37 -13 c20 -7 80 -13 134 -14 110 0 159 17 196 69 27 38 53 138 45 176 -23
109 -118 189 -221 188 -29 0 -53 1 -53 2 0 2 18 38 40 80 66 130 74 218 30
310 -33 68 -69 89 -152 88 -120 -2 -170 -46 -234 -207 l-27 -68 -27 80 c-28
84 -84 168 -132 196 -32 20 -114 20 -149 1z m145 -147 c60 -91 79 -147 99
-282 6 -49 17 -91 23 -93 6 -2 22 6 37 17 20 16 35 51 66 148 45 143 90 225
140 259 46 31 84 29 121 -5 29 -25 31 -32 31 -92 0 -88 -44 -210 -76 -210 -8
0 -15 -6 -15 -13 0 -8 -11 -24 -25 -37 -25 -23 -52 -87 -41 -97 3 -3 40 -5 81
-4 153 5 230 -31 256 -117 19 -65 4 -111 -45 -139 -84 -46 -188 -38 -279 22
-29 18 -64 37 -79 41 -27 6 -28 5 -28 -32 1 -22 7 -66 15 -99 8 -33 15 -100
15 -148 l0 -88 -39 -42 c-36 -38 -42 -41 -68 -32 -24 9 -32 22 -56 90 -29 83
-30 106 -11 261 l6 51 -35 7 c-29 5 -45 0 -93 -28 -84 -50 -166 -71 -215 -57
-56 17 -99 71 -99 125 0 81 84 126 252 135 l108 6 -43 61 c-23 33 -62 103 -87
155 -42 89 -45 99 -45 179 0 65 4 92 18 113 30 46 52 35 111 -55z M723 889
c-34 -10 -38 -17 -47 -90 -6 -37 -3 -48 13 -63 25 -23 101 -32 129 -17 42 23
52 140 14 160 -30 15 -76 20 -109 10z"/>
</g>
</svg>