<svg xmlns="http://www.w3.org/2000/svg" viewBox="0 0 375.000000 51.000000" fill="currentColor">
<g transform="translate(0.000000,51.000000) scale(0.100000,-0.100000)">
<path d="M212 308 c6 -43 47 -52 278 -59 118 -4 307 -8 420 -10 198 -2 193 -2
-130 -11 -477 -12 -595 -19 -595 -38 0 -12 23 -17 115 -23 128 -8 938 -1 1325
13 288 10 1038 27 1588 36 335 6 377 8 364 21 -8 8 -46 19 -83 23 -38 5 -93
13 -123 19 -30 6 -257 16 -505 21 -248 6 -586 15 -751 20 -165 5 -661 9 -1103
10 l-803 0 3 -22z"/>
</g>
</svg>