<svg xmlns="http://www.w3.org/2000/svg" viewBox="0 0 120.000000 131.000000" fill="currentColor">
<g transform="translate(0.000000,131.000000) scale(0.100000,-0.100000)">
<path d="M647 1118 c-20 -4 -48 -15 -61 -23 -37 -24 -77 -109 -83 -174 l-5
-57 -97 0 c-120 1 -165 -18 -199 -84 -47 -92 -19 -153 103 -225 16 -10 15 -14
-12 -58 -62 -96 -68 -195 -17 -248 43 -45 93 -41 180 16 l69 44 24 -47 c35
-71 69 -102 108 -102 82 0 132 65 141 182 l5 66 35 7 c78 15 137 64 178 150
29 60 30 96 5 151 -17 37 -24 43 -70 54 -61 14 -110 2 -141 -37 -36 -46 -28
-53 60 -53 l80 0 0 -37 c0 -42 -24 -85 -61 -111 -19 -13 -43 -17 -111 -15
-104 2 -110 -5 -77 -88 31 -80 13 -169 -35 -169 -33 0 -50 47 -51 140 0 73 -1
75 -25 78 -20 2 -42 -13 -102 -71 -77 -75 -125 -104 -154 -93 -13 5 -14 14 -9
49 4 23 14 54 21 69 18 34 86 75 142 84 33 5 46 13 58 35 13 27 13 29 -11 45
-14 9 -58 20 -98 24 -85 10 -153 35 -167 61 -6 10 -10 31 -10 48 0 39 34 62
99 69 69 6 115 -12 158 -64 24 -28 45 -44 60 -44 l23 0 -7 133 -6 132 27 33
c34 40 88 45 107 10 14 -26 7 -117 -17 -211 -19 -76 -15 -97 20 -97 43 0 82
91 92 213 8 89 -7 146 -46 185 -33 33 -67 42 -123 30z"/>
</g>
</svg>