<svg xmlns="http://www.w3.org/2000/svg" viewBox="0 0 128.000000 163.000000" fill="currentColor">
<g transform="translate(0.000000,163.000000) scale(0.100000,-0.100000)">
<path d="M184 1414 c-6 -34 -4 -39 42 -77 244 -206 461 -492 635 -839 28 -55
47 -98 42 -96 -4 2 -29 14 -56 28 -42 22 -49 23 -62 9 -37 -37 -25 -59 91
-171 105 -102 113 -108 152 -108 l41 0 17 57 c15 53 35 269 25 279 -2 2 -16 4
-31 4 -21 0 -30 -9 -49 -47 l-23 -48 -28 78 c-31 85 -60 138 -161 298 -190
303 -248 379 -384 506 -94 88 -200 163 -232 163 -7 0 -15 -16 -19 -36z"/>
</g>
</svg>