<svg xmlns="http://www.w3.org/2000/svg" viewBox="0 0 80.000000 72.000000" fill="currentColor">
<g transform="translate(0.000000,72.000000) scale(0.100000,-0.100000)">
<path d="M437 522 c-10 -10 -17 -21 -17 -24 0 -3 -7 -22 -15 -42 l-15 -36 -48
24 c-26 13 -59 27 -74 30 -25 6 -28 4 -28 -20 0 -15 9 -41 20 -59 l20 -33 -44
-11 c-52 -13 -61 -23 -46 -51 9 -16 21 -20 66 -20 53 0 56 -1 51 -22 -3 -13
-9 -40 -12 -60 -7 -37 -7 -38 23 -38 28 0 33 5 43 41 7 23 19 44 28 47 8 3 39
-8 70 -24 31 -16 59 -30 64 -32 4 -2 12 9 17 24 8 21 6 33 -10 61 -25 42 -25
40 6 47 38 10 67 31 87 66 l18 30 -77 0 -76 0 6 34 c14 73 -19 111 -57 68z"/>
</g>
</svg>