<svg xmlns="http://www.w3.org/2000/svg" viewBox="0 0 126.000000 154.000000" fill="currentColor">
<g transform="translate(0.000000,154.000000) scale(0.100000,-0.100000)">
<path d="M570 1338 c-8 -19 -40 -376 -40 -444 0 -19 -8 -22 -62 -28 -71 -7
-215 -70 -260 -114 -27 -25 -35 -56 -20 -78 4 -7 60 -13 149 -16 79 -2 145 -7
149 -10 3 -3 -2 -57 -12 -120 -9 -62 -17 -169 -18 -238 l-1 -125 32 -3 c27 -3
35 2 56 33 14 20 54 115 89 211 34 96 66 174 71 174 4 0 51 -44 105 -99 101
-102 126 -121 162 -121 21 0 22 4 18 67 -3 53 -15 94 -56 190 -52 123 -65 183
-39 183 13 0 84 57 170 137 29 27 37 42 37 69 0 59 -27 57 -201 -14 -42 -18
-91 -33 -110 -34 l-34 -3 -37 115 c-20 63 -47 148 -59 188 -22 74 -39 102 -65
102 -8 0 -19 -10 -24 -22z m105 -379 l31 -94 49 3 c28 2 65 8 83 13 18 6 36 9
38 6 3 -3 -13 -24 -35 -48 -48 -51 -48 -57 5 -189 50 -125 44 -156 -17 -79
-41 53 -105 99 -135 99 -27 0 -51 -42 -98 -167 -15 -40 -32 -75 -37 -79 -15
-9 -9 104 10 203 10 51 16 95 13 98 -3 3 -57 5 -120 5 -86 0 -113 3 -110 13 6
19 85 53 169 72 l77 18 6 66 c13 134 18 162 29 158 6 -2 25 -46 42 -98z"/>
</g>
</svg>