<svg xmlns="http://www.w3.org/2000/svg" viewBox="0 0 253.000000 257.000000" fill="currentColor">
<g transform="translate(0.000000,257.000000) scale(0.100000,-0.100000)">
<path d="M1250 2379 c-30 -4 -108 -14 -172 -22 -107 -13 -128 -19 -220 -65
-228 -113 -474 -382 -580 -633 -47 -112 -88 -289 -95 -409 -14 -252 66 -505
210 -665 54 -61 235 -206 317 -256 113 -69 429 -157 595 -166 81 -5 99 -2 190
27 214 69 421 189 569 330 183 175 278 394 301 695 17 224 -62 495 -208 710
-59 86 -200 229 -271 274 -218 137 -461 206 -636 180z m133 -104 c180 -23 301
-70 457 -175 31 -21 64 -50 75 -64 11 -15 34 -35 51 -45 60 -36 162 -194 206
-321 93 -268 66 -606 -66 -830 -94 -160 -282 -348 -432 -433 -185 -104 -395
-114 -644 -30 -111 37 -272 116 -367 179 -99 66 -165 151 -212 273 -53 137
-64 219 -58 440 4 170 8 209 31 296 30 115 85 229 150 314 128 166 407 361
568 396 83 18 106 18 241 0z m-1010 -693 c-31 -123 -42 -375 -24 -531 43 -367
224 -575 619 -712 101 -35 121 -55 43 -45 -103 14 -311 103 -349 150 -9 12
-35 33 -57 47 -59 40 -187 167 -229 230 -76 113 -126 297 -126 465 0 132 54
364 110 473 34 68 40 33 13 -77z m1914 -349 c-4 -138 -9 -194 -25 -248 -48
-163 -120 -282 -242 -398 -44 -43 -84 -77 -90 -77 -24 0 -5 28 69 105 94 98
183 228 211 308 28 78 49 225 56 380 4 88 9 126 16 119 7 -7 9 -74 5 -189z
m-829 -975 c-3 -9 -43 -14 -140 -16 -111 -2 -137 0 -148 13 -11 13 4 15 140
15 117 0 151 -3 148 -12z"/>
</g>
</svg>