<svg xmlns="http://www.w3.org/2000/svg" viewBox="0 0 147.000000 132.000000" fill="currentColor">
<g transform="translate(0.000000,132.000000) scale(0.100000,-0.100000)">
<path d="M1014 1133 c-15 -11 -158 -227 -236 -358 -37 -60 -77 -120 -90 -133
l-25 -22 -97 134 c-96 134 -135 176 -163 176 -28 0 -162 -141 -193 -203 -47
-94 -46 -97 86 -217 64 -58 156 -151 205 -207 102 -116 135 -143 176 -143 36
0 54 18 168 175 49 66 139 181 200 255 189 228 265 330 265 355 0 24 -35 59
-71 70 -10 4 -19 12 -19 18 0 7 -25 32 -56 56 -56 44 -123 63 -150 44z m87
-101 c14 -9 44 -33 67 -53 l42 -36 -18 -34 c-10 -19 -51 -77 -92 -129 -216
-277 -321 -411 -364 -467 -26 -35 -53 -63 -59 -63 -23 0 -64 36 -159 140 -52
58 -134 141 -180 186 l-85 81 18 34 c10 19 40 58 66 87 68 75 79 70 172 -74
101 -155 135 -194 172 -194 23 0 32 7 50 41 11 23 53 91 93 153 39 61 96 152
126 201 95 159 99 163 151 127z"/>
</g>
</svg>