<svg xmlns="http://www.w3.org/2000/svg" viewBox="0 0 78.000000 119.000000" fill="currentColor">
<g transform="translate(0.000000,119.000000) scale(0.100000,-0.100000)">
<path d="M375 994 c-140 -18 -155 -24 -155 -66 0 -18 24 -105 54 -193 29 -88
60 -190 69 -226 l14 -66 -54 -6 c-30 -3 -62 -12 -70 -19 -27 -22 -53 -90 -53
-139 0 -42 4 -50 40 -83 34 -30 47 -36 86 -36 40 0 51 5 79 35 50 52 58 90 52
234 -5 115 -12 154 -54 302 -4 14 8 17 80 21 60 3 93 10 118 24 l34 20 -1 80
c-1 43 -6 91 -12 107 -11 25 -16 27 -64 26 -29 -1 -102 -8 -163 -15z m159 -95
c12 -61 15 -59 -99 -59 -104 0 -105 0 -111 25 -4 14 -4 28 -2 30 8 8 132 33
169 34 33 1 37 -2 43 -30z m-168 -543 c3 -8 -3 -35 -14 -59 -23 -52 -54 -68
-82 -42 -19 17 -19 18 0 56 28 54 83 80 96 45z"/>
</g>
</svg>