<svg xmlns="http://www.w3.org/2000/svg" viewBox="0 0 68.000000 241.000000" fill="currentColor">
<g transform="translate(0.000000,241.000000) scale(0.100000,-0.100000)">
<path d="M387 2217 c-121 -39 -206 -205 -194 -382 4 -71 12 -96 66 -216 74
-166 96 -244 86 -313 -8 -64 -35 -101 -93 -129 -40 -19 -47 -26 -47 -52 0 -26
7 -33 58 -57 75 -36 92 -71 84 -173 -5 -56 -17 -92 -56 -175 -90 -193 -128
-353 -101 -436 39 -123 192 -166 274 -76 29 33 12 45 -56 37 -172 -20 -182 95
-35 420 59 131 67 163 67 268 0 68 -4 97 -20 127 -11 22 -24 40 -28 40 -4 0
-13 4 -20 9 -11 6 -6 20 22 64 19 30 43 83 53 117 21 78 16 101 -77 303 -73
160 -89 213 -90 288 0 127 96 269 182 269 39 0 58 10 58 30 0 40 -67 58 -133
37z"/>
</g>
</svg>