<svg xmlns="http://www.w3.org/2000/svg" viewBox="0 0 94.000000 97.000000" fill="currentColor">
<g transform="translate(0.000000,97.000000) scale(0.100000,-0.100000)">
<path d="M429 768 c-13 -24 -6 -135 12 -186 13 -38 52 -44 69 -11 18 32 2 177
-21 200 -25 25 -46 24 -60 -3z M674 530 c-68 -10 -96 -26 -92 -53 3 -21 8 -22
90 -22 101 1 117 9 96 51 -15 33 -23 35 -94 24z M193 513 c-7 -2 -13 -20 -13
-39 l0 -34 81 0 c96 0 119 10 119 50 l0 30 -87 -1 c-49 0 -94 -3 -100 -6z
M460 371 c-13 -25 -13 -125 0 -173 10 -33 13 -36 38 -29 24 7 28 13 34 67 10
77 1 132 -22 144 -27 14 -38 12 -50 -9z"/>
</g>
</svg>