<svg xmlns="http://www.w3.org/2000/svg" viewBox="0 0 291.000000 224.000000" fill="currentColor">
<g transform="translate(0.000000,224.000000) scale(0.100000,-0.100000)">
<path d="M1375 2054 c-94 -15 -250 -80 -262 -109 -3 -8 -11 -15 -18 -15 -26 0
-132 -109 -163 -167 -34 -65 -57 -175 -48 -232 l6 -37 -78 1 c-124 0 -182 -47
-190 -152 l-4 -58 -97 0 c-113 0 -162 -18 -236 -86 -73 -67 -98 -125 -103
-239 -5 -120 17 -185 88 -263 108 -118 313 -155 380 -70 21 27 27 48 10 38 -6
-3 -48 -6 -95 -6 -77 -1 -92 3 -152 33 -55 27 -75 43 -107 90 -37 54 -40 64
-44 142 -5 103 6 140 59 194 68 68 114 85 220 80 50 -2 94 -9 101 -16 16 -16
78 -16 79 1 2 15 1 17 -18 90 -20 80 -6 122 45 138 30 9 51 7 116 -10 44 -12
86 -21 93 -21 11 0 13 30 11 149 l-3 148 39 57 c52 76 114 128 208 176 97 48
209 74 291 67 62 -6 209 -70 270 -117 60 -47 93 -170 85 -312 -4 -69 -2 -80
14 -89 14 -8 29 -1 74 33 51 38 63 43 124 46 59 4 70 1 93 -19 28 -25 57 -114
57 -175 0 -18 3 -39 6 -48 8 -21 60 -21 107 -1 21 9 67 15 111 15 65 0 78 -3
105 -26 69 -57 135 -253 114 -334 -11 -42 -100 -107 -183 -133 -117 -36 -446
-74 -855 -97 -381 -22 -596 -52 -671 -94 -53 -30 -73 -70 -87 -175 -6 -50 -14
-91 -19 -91 -11 0 -58 65 -108 149 -32 53 -52 77 -68 79 -19 3 -22 -1 -22 -33
0 -40 53 -153 75 -162 8 -3 15 -11 15 -17 0 -7 45 -58 100 -115 111 -113 137
-124 133 -56 -2 22 -6 87 -9 144 -8 130 7 209 39 216 147 31 448 64 692 75
376 18 533 37 715 86 118 32 210 74 267 120 67 55 76 81 71 191 -5 82 -10 103
-41 166 -20 40 -57 95 -82 124 -58 66 -114 81 -237 63 -44 -6 -85 -13 -91 -16
-8 -3 -12 11 -13 39 -1 60 -44 148 -85 178 -29 21 -45 24 -109 23 -41 -1 -94
-8 -116 -17 l-42 -15 -4 96 c-5 110 -21 152 -85 215 -49 49 -161 115 -235 138
-59 19 -181 30 -233 23z"/>
</g>
</svg>