<svg xmlns="http://www.w3.org/2000/svg" viewBox="0 0 109.000000 116.000000" fill="currentColor">
<g transform="translate(0.000000,116.000000) scale(0.100000,-0.100000)">
<path d="M383 970 c-30 -12 -149 -162 -179 -225 -30 -62 -31 -92 -4 -100 28
-9 39 2 101 98 29 45 54 84 56 86 2 2 6 1 9 -2 4 -4 -1 -56 -11 -116 -16 -91
-17 -116 -6 -150 10 -36 15 -41 42 -41 17 0 49 13 72 28 61 41 153 92 166 92
6 0 -9 -39 -33 -87 -55 -107 -65 -152 -39 -175 10 -9 63 -31 118 -48 81 -27
96 -34 83 -44 -101 -71 -138 -101 -138 -112 0 -21 32 -17 108 16 39 17 75 30
81 30 6 0 35 9 66 21 49 18 55 24 55 49 0 20 -9 35 -28 49 -33 23 -158 67
-220 77 -23 4 -44 10 -47 14 -3 4 16 49 40 99 50 103 64 163 45 186 -25 30
-99 19 -198 -30 -51 -24 -92 -41 -92 -37 0 4 7 48 15 97 8 50 15 118 15 153 0
58 -2 63 -26 72 -14 6 -26 10 -27 9 -1 0 -12 -4 -24 -9z"/>
</g>
</svg>