<svg xmlns="http://www.w3.org/2000/svg" viewBox="0 0 134.000000 149.000000" fill="currentColor">
<g transform="translate(0.000000,149.000000) scale(0.100000,-0.100000)">
<path d="M733 1302 c-36 -23 -113 -353 -113 -483 l0 -40 -42 29 c-108 74 -227
118 -333 124 -51 3 -60 0 -63 -15 -5 -27 15 -45 92 -84 96 -48 129 -74 170
-136 53 -79 83 -152 107 -255 25 -109 23 -107 162 -99 119 7 178 26 252 82
l60 45 6 128 c6 153 27 223 99 337 28 44 50 89 50 102 0 34 -51 31 -111 -7
-49 -32 -139 -122 -139 -139 0 -10 -59 -45 -65 -39 -2 2 -20 89 -40 193 -53
277 -54 281 -92 257z m22 -204 c2 -13 14 -76 25 -140 30 -175 47 -241 67 -255
23 -18 31 -16 38 7 3 11 25 47 47 80 45 68 67 69 49 4 -6 -22 -11 -104 -11
-184 l0 -146 -52 -11 c-29 -7 -102 -23 -161 -37 -60 -14 -114 -23 -120 -20 -7
2 -20 44 -29 92 -17 87 -85 243 -118 269 -13 11 -13 12 1 13 8 0 40 -18 70
-40 67 -49 97 -65 106 -57 3 4 10 56 14 116 7 99 32 269 45 314 7 24 23 21 29
-5z M899 296 c-2 -3 -52 -19 -111 -36 -153 -44 -177 -55 -171 -80 17 -64 361
26 371 98 3 20 -1 22 -41 22 -24 0 -46 -2 -48 -4z"/>
</g>
</svg>