<svg xmlns="http://www.w3.org/2000/svg" viewBox="0 0 74.000000 72.000000" fill="currentColor">
<g transform="translate(0.000000,72.000000) scale(0.100000,-0.100000)">
<path d="M240 504 c0 -22 9 -56 20 -77 l20 -37 -45 -11 c-53 -13 -59 -20 -50
-58 6 -28 7 -28 47 -19 22 5 42 7 44 5 2 -2 -1 -19 -6 -38 -13 -44 -13 -96 0
-104 17 -11 59 23 77 60 20 41 36 44 51 11 14 -31 48 -53 87 -58 28 -3 30 -1
27 27 -2 17 -15 49 -28 72 -13 23 -24 44 -24 46 0 3 27 15 60 27 54 20 60 25
60 51 0 28 -1 29 -55 29 l-55 0 0 55 c0 52 -2 55 -24 55 -16 0 -32 -11 -46
-30 -26 -37 -44 -38 -73 -5 -12 14 -37 28 -54 31 -33 6 -33 6 -33 -32z"/>
</g>
</svg>