<svg xmlns="http://www.w3.org/2000/svg" viewBox="0 0 122.000000 117.000000" fill="currentColor">
<g transform="translate(0.000000,117.000000) scale(0.100000,-0.100000)">
<path d="M196 968 c-21 -29 -21 -119 0 -187 58 -196 301 -427 526 -500 59 -19
65 -36 18 -50 -32 -10 -40 -16 -40 -36 0 -35 29 -39 176 -26 193 17 220 42
141 129 -24 26 -58 68 -76 94 -30 46 -57 68 -80 68 -18 0 -12 -61 9 -109 l20
-43 -28 6 c-15 4 -64 24 -110 46 -268 127 -429 312 -479 548 -15 73 -20 82
-40 82 -12 0 -29 -10 -37 -22z"/>
</g>
</svg>