<svg xmlns="http://www.w3.org/2000/svg" viewBox="0 0 188.000000 123.000000" fill="currentColor">
<g transform="translate(0.000000,123.000000) scale(0.100000,-0.100000)">
<path d="M525 1039 c-103 -25 -204 -124 -280 -275 -51 -101 -68 -192 -63 -333
4 -105 7 -123 35 -183 31 -66 61 -95 89 -84 21 8 17 28 -16 91 -29 55 -30 62
-30 184 0 187 26 267 126 395 54 68 120 113 180 122 88 13 184 -59 239 -178
35 -74 32 -103 -20 -200 -77 -145 -93 -262 -44 -314 33 -35 70 -31 113 13 53
55 77 127 83 258 4 83 9 113 21 123 22 17 117 15 152 -3 45 -23 46 -47 6 -119
-54 -97 -60 -182 -14 -207 34 -18 93 5 123 49 22 32 25 47 25 122 l0 85 53 18
c69 22 110 22 130 -1 22 -24 21 -51 -3 -82 -24 -31 -27 -102 -4 -124 44 -45
134 1 134 67 0 19 3 48 6 65 6 29 8 30 74 36 57 6 69 10 73 27 9 33 -45 50
-124 39 -63 -9 -64 -9 -86 19 -36 46 -105 58 -210 36 l-84 -18 -27 25 c-48 45
-72 52 -170 53 l-93 0 -42 78 c-23 42 -58 97 -78 120 -67 79 -180 119 -274 96z
m331 -550 c-10 -81 -37 -153 -60 -157 -16 -4 -17 1 -11 50 9 74 22 119 40 146
28 39 38 27 31 -39z"/>
</g>
</svg>