<svg xmlns="http://www.w3.org/2000/svg" viewBox="0 0 121.000000 112.000000" fill="currentColor">
<g transform="translate(0.000000,112.000000) scale(0.100000,-0.100000)">
<path d="M495 932 c-74 -14 -55 -145 41 -279 25 -35 53 -67 64 -73 19 -10 83
-14 91 -5 3 2 1 40 -3 82 -17 158 -111 292 -193 275z m74 -128 c26 -33 35 -64
23 -76 -9 -9 -62 68 -62 91 0 19 18 12 39 -15z M894 847 c-55 -31 -118 -144
-130 -233 -10 -82 12 -79 110 12 98 93 116 118 116 166 0 56 -47 83 -96 55z
m36 -77 c0 -13 -37 -50 -50 -50 -10 0 -3 27 13 48 11 14 37 16 37 2z M280 591
c-49 -16 -89 -41 -95 -60 -9 -29 12 -70 42 -82 71 -27 299 20 331 68 14 22 13
24 -42 49 -61 28 -187 41 -236 25z M850 538 c-34 -18 -36 -43 -7 -72 41 -41
153 -61 191 -33 24 18 12 61 -25 88 -37 26 -124 35 -159 17z M525 418 c-36
-19 -96 -82 -116 -121 -14 -26 -19 -53 -17 -85 l3 -47 43 -3 c39 -3 47 1 77
32 42 45 105 169 105 207 0 27 -3 29 -37 29 -21 0 -47 -6 -58 -12z M670 416
c-29 -36 12 -166 68 -213 15 -13 41 -22 60 -23 31 0 32 2 32 38 0 116 -112
254 -160 198z"/>
</g>
</svg>