<svg xmlns="http://www.w3.org/2000/svg" viewBox="0 0 135.000000 140.000000" fill="currentColor">
<g transform="translate(0.000000,140.000000) scale(0.100000,-0.100000)">
<path d="M940 1199 c-104 -27 -248 -99 -316 -159 -32 -28 -69 -53 -82 -57 -13
-3 -54 -1 -91 6 -72 11 -146 0 -211 -34 -26 -14 -60 -50 -60 -66 0 -3 21 -17
47 -30 57 -29 135 -98 164 -145 12 -19 34 -79 50 -132 40 -133 83 -212 159
-295 83 -90 140 -127 196 -127 28 0 44 5 48 15 3 8 -1 59 -9 113 -8 53 -15
129 -15 168 l0 71 73 5 c84 6 147 31 224 89 46 34 53 44 53 74 0 45 -17 59
-97 79 -84 21 -153 51 -153 66 0 19 55 86 150 185 79 81 120 138 120 164 0 15
-60 31 -119 30 -31 0 -90 -9 -131 -20z m150 -64 c0 -4 -40 -44 -89 -91 -113
-107 -151 -163 -151 -219 0 -24 6 -48 13 -54 8 -6 60 -23 115 -38 82 -21 102
-30 102 -44 0 -35 -105 -83 -217 -99 -102 -14 -107 -23 -111 -178 -2 -70 -5
-133 -8 -141 -3 -10 -14 -6 -42 15 -98 74 -153 165 -196 329 -31 117 -65 177
-126 223 -25 19 -46 41 -48 48 -7 30 104 45 175 25 30 -9 40 -5 110 43 173
118 325 186 416 186 31 0 57 -2 57 -5z"/>
</g>
</svg>